<svg width="128" height="30" viewBox="0 0 128 30" fill="none" xmlns="http://www.w3.org/2000/svg">
<g clip-path="url(#clip0_3815_4938)">
<path d="M41.604 13.0094V13.1087C41.604 13.7144 41.7163 14.0384 41.985 14.1931C42.3237 14.3901 43.0564 14.4748 44.4354 14.4748C45.6045 14.4748 46.3372 14.4325 47.3516 14.3055C47.8872 14.2355 48.1543 14.1361 48.3236 13.9391C48.506 13.7144 48.6053 13.4311 48.6053 13.1364C48.6053 12.5877 48.3659 12.3191 47.7179 12.179C47.3239 12.0944 47.3092 12.0944 44.7464 12.0797H43.3934C41.407 12.0651 40.632 11.9104 40.1109 11.4317C39.6599 11.0377 39.4482 10.445 39.4482 9.6146C39.4482 8.57255 39.7022 7.71285 40.1533 7.31883C40.7866 6.72779 42.2243 6.50146 45.3228 6.50146C47.2099 6.50146 48.2243 6.57148 48.8723 6.76849C50.0414 7.10716 50.4501 7.74053 50.4501 9.19127V9.37363H48.3366C48.322 8.82492 48.182 8.54324 47.8856 8.40158C47.4916 8.21922 46.5896 8.10525 45.5475 8.10525C43.7728 8.10525 42.5337 8.2176 42.1104 8.42926C41.7717 8.58394 41.604 8.90796 41.604 9.34432C41.604 9.753 41.731 10.02 41.998 10.1747C42.322 10.3571 42.8577 10.4141 44.3361 10.4141H45.9285C48.7453 10.4141 49.605 10.5687 50.196 11.2021C50.5901 11.6108 50.7741 12.2311 50.7741 13.1608C50.7741 14.1475 50.5624 14.8232 50.0984 15.2743C49.478 15.8653 48.2666 16.0639 45.0981 16.0639C41.718 16.0639 40.6613 15.9093 40.0686 15.3459C39.6453 14.9372 39.4629 14.3739 39.4629 13.4865C39.4629 13.4018 39.4629 13.1901 39.4776 13.0078H41.604V13.0094Z" fill="#FC4554"/>
<path d="M55.2402 6.5861H65.2277V8.23385H57.3813V10.4596H64.8467V11.938H57.3813V14.3331H65.3123V15.9809H55.2402V6.58447V6.5861Z" fill="#FC4554"/>
<path d="M81.0898 12.6007V12.7554C81.0898 14.0938 80.9481 14.7565 80.5541 15.1782C79.9061 15.8962 79.0187 16.0656 75.9626 16.0656C72.216 16.0656 71.5257 15.9956 70.6937 15.5445C70.158 15.2482 69.8063 14.7418 69.6223 14.0238C69.4953 13.5451 69.4253 12.4461 69.4253 11.1223C69.4253 8.50253 69.6923 7.61516 70.679 7.06482C71.4817 6.61381 72.4538 6.50146 75.4269 6.50146C78.6817 6.50146 79.766 6.68382 80.3571 7.34651C80.7658 7.78287 80.9774 8.60023 80.9774 9.7416H78.9063C78.9063 8.37553 78.6247 8.24853 75.5262 8.24853C73.3281 8.24853 72.6947 8.30552 72.2437 8.54487C71.708 8.82655 71.5957 9.34757 71.5957 11.3763C71.5957 14.1085 71.8204 14.3201 74.7512 14.3201L77.6249 14.2631C78.6393 14.1638 78.991 13.7844 78.991 12.8124V12.6007H81.0898Z" fill="#FC4554"/>
<path d="M97.206 6.58614V12.5031C97.206 14.2925 96.9243 15.0251 96.0223 15.5315C95.2196 15.9972 94.4169 16.0802 91.0921 16.0802C87.7673 16.0802 86.8522 15.8832 86.1619 15.1082C85.6832 14.5595 85.5415 13.9115 85.5415 12.1774V6.58451H87.7103V11.5001C87.7103 12.3359 87.7336 12.8851 87.7803 13.1478C87.935 14.1475 88.4853 14.3315 91.3021 14.3315C92.5705 14.3315 93.7395 14.2745 94.0636 14.1899C94.6123 14.0482 94.9086 13.7112 94.9933 13.1185C95.0117 13.0056 95.0258 12.5128 95.0356 11.6401V6.58289H97.2044L97.206 6.58614Z" fill="#FC4554"/>
<path d="M101.897 6.58618H109.855C111.503 6.58618 112.25 6.78319 112.757 7.3319C113.165 7.78291 113.362 8.51561 113.362 9.58534C113.362 10.6551 113.235 11.1908 112.954 11.5441C112.672 11.8974 112.333 12.0651 111.77 12.1644C112.954 12.2637 113.221 12.6285 113.208 14.1232V15.9826H111.024V14.5742C110.997 13.2928 110.7 13.0388 109.277 13.0534H104.051V15.9842H101.895V6.58781L101.897 6.58618ZM109.207 11.3194C110.785 11.3194 111.179 11.0377 111.179 9.91098C111.179 8.61493 110.855 8.3479 109.25 8.3479H104.052V11.3194H109.209H109.207Z" fill="#FC4554"/>
<path d="M117.928 6.5861H127.915V8.23385H120.069V10.4596H127.534V11.938H120.069V14.3331H128V15.9809H117.928V6.58447V6.5861Z" fill="#FC4554"/>
<path d="M45.2331 22.2154V22.2903C45.2331 22.9416 45.1647 23.2623 44.9725 23.4691C44.6583 23.8192 44.2268 23.9006 42.7403 23.9006C40.9183 23.9006 40.5829 23.8664 40.1791 23.6466C39.9186 23.5033 39.7476 23.2558 39.6581 22.9074C39.5962 22.6745 39.562 22.1405 39.562 21.4957C39.562 20.2224 39.6923 19.791 40.171 19.5223C40.5617 19.3025 41.0339 19.2488 42.4798 19.2488C44.0624 19.2488 44.5899 19.3383 44.8765 19.6591C45.0751 19.8708 45.1777 20.268 45.1777 20.8233H44.1715C44.1715 20.1589 44.0347 20.0971 42.527 20.0971C41.4589 20.0971 41.1495 20.1248 40.9313 20.2404C40.6708 20.3771 40.6155 20.6311 40.6155 21.6178C40.6155 22.9464 40.7246 23.049 42.1492 23.049L43.5462 23.0213C44.0396 22.9741 44.2105 22.7885 44.2105 22.3163V22.2137H45.2314L45.2331 22.2154Z" fill="#610CF4"/>
<path d="M51.9526 19.6948C52.1448 19.9065 52.2474 20.2012 52.2881 20.6604C52.3092 20.872 52.3157 21.1195 52.3157 21.6259C52.3157 22.7705 52.2066 23.2085 51.8566 23.5162C51.6026 23.736 51.2607 23.8451 50.6859 23.8793C50.4661 23.8924 49.6373 23.907 49.0007 23.907C47.6037 23.907 47.226 23.8663 46.8368 23.653C46.5356 23.4886 46.337 23.1727 46.2751 22.7217C46.2344 22.4205 46.2197 22.173 46.2197 21.4272C46.2197 20.3591 46.3223 19.9342 46.6512 19.646C46.8971 19.4262 47.2194 19.3236 47.8089 19.2764C48.0417 19.2552 48.7272 19.2422 49.5624 19.2422C51.1793 19.2422 51.6107 19.3236 51.9526 19.6948ZM47.2943 21.5787C47.2943 22.4693 47.3627 22.7575 47.6167 22.8877C47.8707 23.0245 48.0889 23.0457 49.398 23.0457C50.5768 23.0457 50.8699 22.9985 51.0555 22.7917C51.2134 22.6207 51.2607 22.326 51.2607 21.5526C51.2607 20.1214 51.2476 20.1068 49.2742 20.1068C47.3009 20.1068 47.2943 20.1279 47.2943 21.5787Z" fill="#610CF4"/>
<path d="M53.4263 19.291H57.2965C58.0976 19.291 58.4607 19.3871 58.7082 19.6541C58.9068 19.8739 59.0029 20.2289 59.0029 20.7499C59.0029 21.2709 58.941 21.5298 58.8042 21.7024C58.6675 21.8734 58.503 21.9564 58.2295 22.0036C58.8042 22.0508 58.9345 22.2299 58.928 22.9561V23.8598H57.8664V23.1743C57.8534 22.5507 57.7085 22.4286 57.0165 22.4351H54.4748V23.8598H53.4263V19.291ZM56.9806 21.5917C57.7475 21.5917 57.9397 21.4549 57.9397 20.9062C57.9397 20.2761 57.7817 20.1458 57.0018 20.1458H54.4748V21.5917H56.9823H56.9806Z" fill="#610CF4"/>
<path d="M60.1265 19.291H64.9834V20.0921H61.1685V21.1749H64.7994V21.8945H61.1685V23.0587H65.0241V23.8598H60.1265V19.291Z" fill="#610CF4"/>
<path d="M73.3263 22.2154V22.2903C73.3263 22.9416 73.2579 23.2623 73.0658 23.4691C72.7516 23.8192 72.3201 23.9006 70.8335 23.9006C69.0116 23.9006 68.6762 23.8664 68.2724 23.6466C68.0119 23.5033 67.8409 23.2558 67.7513 22.9074C67.6895 22.6745 67.6553 22.1405 67.6553 21.4957C67.6553 20.2224 67.7855 19.791 68.2642 19.5223C68.655 19.3025 69.1272 19.2488 70.573 19.2488C72.1556 19.2488 72.6832 19.3383 72.9697 19.6591C73.1684 19.8708 73.271 20.268 73.271 20.8233H72.2647C72.2647 20.1589 72.128 20.0971 70.6202 20.0971C69.5521 20.0971 69.2428 20.1248 69.0246 20.2404C68.7641 20.3771 68.7104 20.6311 68.7104 21.6178C68.7104 22.9464 68.8194 23.049 70.2441 23.049L71.6411 23.0213C72.1345 22.9741 72.3054 22.7885 72.3054 22.3163V22.2137H73.3263V22.2154Z" fill="#610CF4"/>
<path d="M80.0459 19.6948C80.238 19.9065 80.3406 20.2012 80.3813 20.6604C80.4025 20.872 80.409 21.1195 80.409 21.6259C80.409 22.7705 80.2999 23.2085 79.9498 23.5162C79.6958 23.736 79.3539 23.8451 78.7792 23.8793C78.5594 23.8924 77.7306 23.907 77.094 23.907C75.697 23.907 75.3192 23.8663 74.9301 23.653C74.6289 23.4886 74.4302 23.1727 74.3683 22.7217C74.3276 22.4205 74.313 22.173 74.313 21.4272C74.313 20.3591 74.4156 19.9342 74.7445 19.646C74.9903 19.4262 75.3127 19.3236 75.9021 19.2764C76.135 19.2552 76.8204 19.2422 77.6557 19.2422C79.2725 19.2422 79.704 19.3236 80.0459 19.6948ZM75.3892 21.5787C75.3892 22.4693 75.4576 22.7575 75.7116 22.8877C75.9656 23.0245 76.1838 23.0457 77.4929 23.0457C78.6717 23.0457 78.9648 22.9985 79.1504 22.7917C79.3083 22.6207 79.3556 22.326 79.3556 21.5526C79.3556 20.1214 79.3425 20.1068 77.3691 20.1068C75.3957 20.1068 75.3892 20.1279 75.3892 21.5787Z" fill="#610CF4"/>
<path d="M81.5192 19.291H83.1556L86.5878 23.0929L86.5666 19.291H87.5729V23.8598H85.9284L82.5173 20.0791L82.5385 23.8598H81.5176V19.291H81.5192Z" fill="#610CF4"/>
<path d="M89.719 22.4139V22.4611C89.719 22.7558 89.7743 22.9137 89.9046 22.9886C90.069 23.0847 90.4256 23.1254 91.0964 23.1254C91.6647 23.1254 92.0213 23.1042 92.5146 23.044C92.7751 23.0098 92.9054 22.9626 92.9868 22.8665C93.0763 22.7574 93.1236 22.6206 93.1236 22.4757C93.1236 22.2087 93.008 22.0784 92.6921 22.0101C92.4999 21.9694 92.4934 21.9694 91.2462 21.9628H90.5884C89.6229 21.9563 89.2452 21.8814 88.9928 21.6486C88.773 21.4565 88.6704 21.1683 88.6704 20.7645C88.6704 20.2581 88.7942 19.8397 89.0123 19.6475C89.3201 19.3593 90.0186 19.2502 91.5263 19.2502C92.4446 19.2502 92.9379 19.2844 93.2522 19.3805C93.8204 19.5449 94.0191 19.8527 94.0191 20.5593V20.6489H92.9917C92.9852 20.3818 92.9168 20.2451 92.7719 20.1767C92.5797 20.0871 92.1417 20.0334 91.6354 20.0334C90.7724 20.0334 90.17 20.0888 89.9648 20.1913C89.8004 20.2662 89.719 20.4242 89.719 20.6358C89.719 20.8345 89.7808 20.9647 89.9111 21.0396C90.069 21.1292 90.3296 21.1552 91.0476 21.1552H91.821C93.1903 21.1552 93.6088 21.2301 93.897 21.5395C94.0891 21.7381 94.177 22.0394 94.177 22.492C94.177 22.9723 94.0744 23.2996 93.8481 23.5194C93.5469 23.8076 92.9575 23.9037 91.4172 23.9037C89.7727 23.9037 89.2598 23.8288 88.9716 23.5536C88.7665 23.355 88.6769 23.0814 88.6769 22.6499C88.6769 22.6092 88.6769 22.5067 88.6834 22.4171H89.7173L89.719 22.4139Z" fill="#610CF4"/>
<path d="M100.898 19.2909V22.168C100.898 23.0374 100.762 23.394 100.324 23.6399C99.9329 23.8662 99.5421 23.9069 97.9269 23.9069C96.3118 23.9069 95.8656 23.8108 95.5302 23.4347C95.2974 23.1677 95.229 22.8518 95.229 22.01V19.2909H96.2841V21.6811C96.2841 22.0871 96.2955 22.3541 96.3183 22.4822C96.3932 22.9691 96.6602 23.057 98.0312 23.057C98.6482 23.057 99.2165 23.0293 99.3744 22.9886C99.6415 22.9202 99.7847 22.7558 99.8271 22.4676C99.8357 22.4133 99.8428 22.1734 99.8482 21.7479V19.2893H100.903L100.898 19.2909Z" fill="#610CF4"/>
<path d="M102.085 19.291H103.141V23.0033H106.477V23.8598H102.085V19.291Z" fill="#610CF4"/>
<path d="M108.16 20.1475H106.009V19.291H111.36V20.1475H109.215V23.8598H108.16V20.1475Z" fill="#610CF4"/>
<path d="M112.209 19.291H113.265V23.8598H112.209V19.291Z" fill="#610CF4"/>
<path d="M114.491 19.291H116.127L119.56 23.0929L119.538 19.291H120.545V23.8598H118.9L115.489 20.0791L115.51 23.8598H114.489V19.291H114.491Z" fill="#610CF4"/>
<path d="M127.507 21.4141V21.901C127.507 22.7362 127.46 23.0375 127.295 23.3387C127.158 23.5845 126.932 23.736 126.575 23.8255C126.33 23.8874 125.939 23.9004 124.561 23.9004C123.348 23.9004 122.761 23.8597 122.479 23.7506C122.041 23.5862 121.815 23.3191 121.718 22.8323C121.663 22.5718 121.644 22.2706 121.644 21.6193C121.644 20.4144 121.718 20.0302 122.013 19.7078C122.205 19.5026 122.472 19.3789 122.835 19.3317C123.26 19.2698 123.747 19.2502 125.089 19.2502C126.43 19.2502 126.904 19.3463 127.192 19.6752C127.391 19.895 127.487 20.25 127.487 20.758H126.453C126.447 20.4698 126.413 20.3607 126.282 20.2581C126.105 20.1148 125.872 20.0871 124.981 20.0871C123.33 20.0871 123.076 20.1148 122.899 20.3265C122.756 20.4909 122.707 20.7922 122.707 21.5053C122.707 22.3959 122.762 22.7037 122.953 22.8681C123.151 23.0456 123.412 23.0798 124.651 23.0798C126.007 23.0798 126.15 23.0521 126.356 22.7574C126.445 22.6418 126.479 22.422 126.479 22.1061H124.446V21.4141H127.507Z" fill="#610CF4"/>
<path d="M26.7091 17.2884C26.276 18.2409 25.7827 19.1982 25.221 20.1459C24.6869 21.0479 24.0893 21.9385 23.4234 22.808C21.3377 25.5238 18.573 28.0069 14.9062 29.8142V26.1784C17.049 24.9247 18.9377 23.3127 20.5399 21.367C20.7092 21.1619 20.8769 20.9502 21.0397 20.7369C21.5233 20.1052 21.9792 19.4392 22.4074 18.7407C22.9594 17.8436 23.4625 16.8943 23.92 15.8962L25.0956 16.484L26.7091 17.29V17.2884Z" fill="url(#paint0_linear_3815_4938)"/>
<path d="M25.6803 10.9415C25.5321 11.5016 25.3628 12.078 25.1723 12.6674L23.6987 11.9315L25.6803 10.9415Z" fill="url(#paint1_linear_3815_4938)"/>
<path d="M6.55382 14.3755L5.69412 15.4453C5.42873 14.8396 5.18124 14.2143 4.95166 13.5745C5.38151 13.7894 6.40402 14.2974 6.55382 14.3755Z" fill="url(#paint2_linear_3815_4938)"/>
<path d="M6.85639 7.40998C6.8743 7.40346 6.89221 7.39858 6.90849 7.39207L3.19129 5.53428L0.0162821 3.94678C0.0162821 3.94678 0.00488463 3.95329 0 3.95655C0 3.95655 0 5.42845 0.333783 7.70794L3.76605 9.42407L7.8903 11.4854C7.40509 10.0184 7.0762 8.62462 6.85476 7.40998H6.85639Z" fill="url(#paint3_linear_3815_4938)"/>
<path d="M14.9063 26.1767V29.8125C11.2396 28.0068 8.47327 25.5238 6.38916 22.8063C5.72322 21.9385 5.12567 21.0462 4.59162 20.1442C4.02988 19.1966 3.53654 18.2392 3.10343 17.2867C2.21769 15.3394 1.58431 13.4165 1.1333 11.6661L4.89121 13.5435L4.90912 13.5532L4.94982 13.5728C5.1794 14.2143 5.42689 14.8379 5.69229 15.4452C5.75741 15.595 5.82417 15.7448 5.89255 15.893C6.34845 16.8911 6.8532 17.8419 7.40516 18.7374C7.83338 19.4359 8.28928 20.1019 8.77286 20.7336C8.93568 20.9469 9.10338 21.1586 9.27272 21.3637C10.5085 22.865 11.9153 24.1675 13.4767 25.2584C13.9392 25.5824 14.4162 25.8869 14.9063 26.1735V26.1767Z" fill="url(#paint4_linear_3815_4938)"/>
<path d="M22.3065 15.0869L22.0704 14.9696L20.7971 14.333C20.5236 14.924 20.2289 15.4955 19.9179 16.0443C19.7013 16.4253 19.4766 16.7965 19.2422 17.1563L20.7939 17.9313L22.4074 18.7373C22.9594 17.8402 23.4625 16.8909 23.92 15.8928L22.3065 15.0869Z" fill="url(#paint5_linear_3815_4938)"/>
<path d="M14.8589 0V2.84774C14.4404 2.85425 11.381 2.94055 7.68172 3.92724C6.24238 4.30987 4.70698 4.82927 3.19112 5.53428L0.0161133 3.94678C1.33171 3.19455 2.68638 2.5856 4.01499 2.09388C9.37343 0.107462 14.3313 0.00488463 14.8589 0Z" fill="url(#paint6_linear_3815_4938)"/>
<path d="M29.7961 3.94678L26.6211 5.53428C23.4216 4.04773 20.1294 3.38342 17.8515 3.08708C16.1094 2.86076 14.9631 2.84774 14.9061 2.84774C14.9012 2.84774 14.8849 2.84774 14.8589 2.84774V3.73681e-07C14.8898 3.73681e-07 14.9061 3.73681e-07 14.9061 3.73681e-07C14.9061 3.73681e-07 22.8615 -0.0113971 29.7961 3.94678Z" fill="url(#paint7_linear_3815_4938)"/>
<path d="M29.8126 3.95655C29.8126 3.95655 29.8126 5.42845 29.4788 7.70794C29.3111 8.85257 29.0587 10.2007 28.681 11.6677C28.4823 12.4395 28.2479 13.2438 27.9727 14.0677L25.9261 13.0452L25.1738 12.6691C25.3643 12.0797 25.5337 11.5033 25.6818 10.9432C25.8202 10.4205 25.9407 9.91253 26.0465 9.42407C26.3803 7.88216 26.5627 6.54214 26.6604 5.55219C26.6474 5.54568 26.6343 5.54079 26.6213 5.53428L29.7963 3.94678C29.7963 3.94678 29.8077 3.95329 29.8126 3.95655Z" fill="url(#paint8_linear_3815_4938)"/>
<path d="M14.9063 5.93156V8.30549C14.5367 8.31689 12.5438 8.40481 10.0738 8.97305C10.0494 8.97794 10.0266 8.98445 10.0021 8.98934L6.85645 7.40835C6.87436 7.40183 6.89227 7.39695 6.90855 7.39044C8.85751 6.73264 10.73 6.3728 12.1758 6.17254C13.6852 5.96412 14.7288 5.93319 14.9047 5.92993L14.9063 5.93156Z" fill="url(#paint9_linear_3815_4938)"/>
<path d="M14.9061 18.0486V21.8521C14.066 21.2188 13.2812 20.5072 12.5583 19.7241C12.1708 19.3056 11.8012 18.8644 11.4495 18.4052C11.145 18.0063 10.8503 17.5895 10.5702 17.158C10.3358 16.7982 10.1111 16.4269 9.89452 16.0459C9.58353 15.4972 9.28883 14.9257 9.01529 14.3347C8.63591 13.519 8.29399 12.6641 7.98952 11.7719C7.95695 11.6758 7.92439 11.5814 7.89345 11.4853C7.40824 10.0183 7.07935 8.62456 6.85791 7.40991L10.0036 8.9909C10.155 9.54775 10.3211 10.0932 10.5035 10.6256C10.7998 11.4902 11.132 12.3124 11.5016 13.0924L11.6269 13.3512C12.0731 14.2614 12.568 15.1081 13.1119 15.888C13.2584 16.098 13.4082 16.3048 13.5629 16.5051C13.9813 17.0522 14.4307 17.5683 14.9094 18.047L14.9061 18.0486Z" fill="url(#paint10_linear_3815_4938)"/>
<path d="M20.7971 14.3331C20.5236 14.9241 20.2289 15.4956 19.9179 16.0443C19.7013 16.4253 19.4766 16.7965 19.2422 17.1564C18.9621 17.5879 18.6674 18.0047 18.3629 18.4036C18.0112 18.8627 17.6416 19.304 17.2541 19.7224C16.5312 20.5056 15.7464 21.2155 14.9062 21.8505V18.047C15.3833 17.5667 15.8327 17.0522 16.2528 16.5051C16.4058 16.3048 16.5573 16.098 16.7038 15.888C17.246 15.1081 17.7426 14.2598 18.1887 13.3496L18.3076 13.094L20.7987 14.3331H20.7971Z" fill="url(#paint11_linear_3815_4938)"/>
<path d="M22.9562 7.40996C22.7543 8.51877 22.4628 9.77737 22.0428 11.1044L19.5581 9.86204C19.646 9.57385 19.7307 9.2824 19.8105 8.98932C19.804 8.98932 19.7991 8.98606 19.7926 8.98444L22.9285 7.39856C22.9383 7.40182 22.9464 7.40344 22.9562 7.40833V7.40996Z" fill="url(#paint12_linear_3815_4938)"/>
<path d="M22.9284 7.4002L19.7925 8.98608C19.7746 8.98119 19.7567 8.97794 19.7388 8.97305C18.6007 8.71091 17.5635 8.55135 16.7396 8.45366C15.7757 8.33968 15.1065 8.31037 14.9062 8.30386V5.92993C15.2514 5.93807 18.9198 6.04716 22.9024 7.39044C22.9105 7.39369 22.9187 7.39532 22.9268 7.39858L22.9284 7.4002Z" fill="url(#paint13_linear_3815_4938)"/>
<path d="M16.6355 10.5247C15.7334 10.3602 15.0528 10.3309 14.9063 10.326C14.8949 10.326 14.8786 10.3261 14.8591 10.3277C14.6458 10.3358 14.0043 10.3733 13.1771 10.5247C12.9818 10.5605 12.775 10.6028 12.5601 10.6533C12.6317 10.9187 12.7115 11.1809 12.7994 11.4349C12.8987 11.7263 13.0078 12.008 13.125 12.2783C13.4425 13.0126 13.8235 13.672 14.2615 14.2468C14.4472 14.491 14.6474 14.7206 14.8591 14.9371C14.8737 14.9534 14.89 14.9697 14.9063 14.9844C15.1343 14.7548 15.3492 14.5089 15.5495 14.2468C15.9891 13.672 16.3684 13.0126 16.6859 12.2783C16.8032 12.0064 16.9123 11.7247 17.0116 11.4349C17.0995 11.1792 17.1793 10.9187 17.2509 10.6533C17.0376 10.6028 16.8309 10.5605 16.6338 10.5247H16.6355Z" fill="#FC4554"/>
</g>
<defs>
<linearGradient id="paint0_linear_3815_4938" x1="14.9063" y1="22.8536" x2="26.7091" y2="22.8536" gradientUnits="userSpaceOnUse">
<stop stop-color="#FC4554"/>
<stop offset="1" stop-color="#FD7F56"/>
</linearGradient>
<linearGradient id="paint1_linear_3815_4938" x1="23.6971" y1="11.8045" x2="25.6803" y2="11.8045" gradientUnits="userSpaceOnUse">
<stop offset="0.06" stop-color="#FC4554"/>
<stop offset="1" stop-color="#D6274F"/>
</linearGradient>
<linearGradient id="paint2_linear_3815_4938" x1="4.95166" y1="14.5107" x2="6.55382" y2="14.5107" gradientUnits="userSpaceOnUse">
<stop offset="0.06" stop-color="#FC4554"/>
<stop offset="1" stop-color="#D6274F"/>
</linearGradient>
<linearGradient id="paint3_linear_3815_4938" x1="0" y1="7.71608" x2="7.89193" y2="7.71608" gradientUnits="userSpaceOnUse">
<stop stop-color="#FC8055"/>
<stop offset="0.95" stop-color="#FFD464"/>
</linearGradient>
<linearGradient id="paint4_linear_3815_4938" x1="1.1333" y1="20.7401" x2="14.9063" y2="20.7401" gradientUnits="userSpaceOnUse">
<stop offset="0.05" stop-color="#FFD464"/>
<stop offset="0.6" stop-color="#FC8456"/>
<stop offset="1" stop-color="#FD6B55"/>
</linearGradient>
<linearGradient id="paint5_linear_3815_4938" x1="19.2422" y1="16.536" x2="23.92" y2="16.536" gradientUnits="userSpaceOnUse">
<stop offset="0.06" stop-color="#FC4554"/>
<stop offset="1" stop-color="#D6274F"/>
</linearGradient>
<linearGradient id="paint6_linear_3815_4938" x1="0.0161133" y1="2.76795" x2="14.8589" y2="2.76795" gradientUnits="userSpaceOnUse">
<stop offset="0.05" stop-color="#FFD464"/>
<stop offset="0.54" stop-color="#FC8456"/>
<stop offset="1" stop-color="#FD6B55"/>
</linearGradient>
<linearGradient id="paint7_linear_3815_4938" x1="14.8589" y1="2.76633" x2="29.7961" y2="2.76633" gradientUnits="userSpaceOnUse">
<stop stop-color="#FC4554"/>
<stop offset="1" stop-color="#FD7F56"/>
</linearGradient>
<linearGradient id="paint8_linear_3815_4938" x1="25.1706" y1="9.00725" x2="29.8126" y2="9.00725" gradientUnits="userSpaceOnUse">
<stop offset="0.06" stop-color="#FC4554"/>
<stop offset="1" stop-color="#D6274F"/>
</linearGradient>
<linearGradient id="paint9_linear_3815_4938" x1="6.85645" y1="7.46045" x2="14.9063" y2="7.46045" gradientUnits="userSpaceOnUse">
<stop stop-color="#610CF4"/>
<stop offset="0.74" stop-color="#9142F0"/>
<stop offset="0.99" stop-color="#A256EF"/>
</linearGradient>
<linearGradient id="paint10_linear_3815_4938" x1="6.85628" y1="14.6294" x2="14.9061" y2="14.6294" gradientUnits="userSpaceOnUse">
<stop offset="0.01" stop-color="#A256EF"/>
<stop offset="0.26" stop-color="#9142F0"/>
<stop offset="1" stop-color="#610CF4"/>
</linearGradient>
<linearGradient id="paint11_linear_3815_4938" x1="14.9063" y1="17.4722" x2="20.7971" y2="17.4722" gradientUnits="userSpaceOnUse">
<stop stop-color="#600CF2"/>
<stop offset="0.08" stop-color="#610CF4"/>
<stop offset="1" stop-color="#510ACC"/>
</linearGradient>
<linearGradient id="paint12_linear_3815_4938" x1="19.5581" y1="9.25309" x2="22.9562" y2="9.25309" gradientUnits="userSpaceOnUse">
<stop offset="0.08" stop-color="#610CF4"/>
<stop offset="0.91" stop-color="#510ACC"/>
</linearGradient>
<linearGradient id="paint13_linear_3815_4938" x1="14.9063" y1="7.45882" x2="22.9284" y2="7.45882" gradientUnits="userSpaceOnUse">
<stop offset="0.08" stop-color="#610CF4"/>
<stop offset="0.91" stop-color="#510ACC"/>
</linearGradient>
<clipPath id="clip0_3815_4938">
<rect width="128" height="29.8125" fill="white"/>
</clipPath>
</defs>
</svg>
