<svg width="67" height="61" viewBox="0 0 67 61" fill="none" xmlns="http://www.w3.org/2000/svg">
<path d="M0 5.38L13.2949 19.1209V40.936L10.4331 43.8957L0 54.6769V5.38Z" fill="url(#paint0_linear_3344_3352)"/>
<path d="M32.9672 51.199C23.8112 51.199 16.3623 43.68 16.3623 34.4378C16.3623 33.0566 16.5291 31.686 16.8575 30.3574C17.0843 29.4419 18.0043 28.8841 18.9113 29.113C19.8183 29.3419 20.3708 30.2706 20.1441 31.1861C19.8834 32.2411 19.7505 33.3355 19.7505 34.4352C19.7505 41.7911 25.6799 47.7763 32.9672 47.7763C38.1199 47.7763 42.8373 44.7218 44.9876 39.9942C45.3785 39.1365 46.3819 38.7603 47.2342 39.1523C48.0839 39.547 48.4566 40.5625 48.0682 41.4201C45.3681 47.358 39.4413 51.1964 32.9698 51.1964L32.9672 51.199Z" fill="url(#paint1_linear_3344_3352)"/>
<path d="M66.3727 9.57098V23.5119H53.0779V18.7974L65.6534 5.79834C66.1147 6.96118 66.3701 8.23714 66.3701 9.57098H66.3727Z" fill="url(#paint2_linear_3344_3352)"/>
<path d="M66.3727 36.0165V54.8613L53.0779 41.1835V36.0165H66.3727Z" fill="url(#paint3_linear_3344_3352)"/>
<path d="M66.3727 54.8611V60.9199H57.6649C56.3566 60.9199 55.1055 60.649 53.9692 60.157C52.8198 59.6624 51.7825 58.9442 50.912 58.0497L33.1968 39.8494L42.6916 30.0179L43.4474 30.794L53.0778 40.7097V41.1833L66.3727 54.8611Z" fill="url(#paint4_linear_3344_3352)"/>
<path d="M65.7916 6.16145H65.789L55.2803 17.0269L53.0779 19.3052L52.4185 19.9866L42.6917 30.018L38.7562 25.9797C37.3175 24.5669 35.3523 23.6961 33.1865 23.6961C33.0666 23.6961 32.9467 23.6987 32.8268 23.704H32.8164C32.6782 23.7092 32.5401 23.7198 32.4046 23.7355C30.9685 23.875 29.6445 24.3985 28.5342 25.2036L33.2542 20.3339L46.5308 6.63764L50.1745 2.87289C51.045 1.9784 52.0823 1.25755 53.2291 0.765578C54.3681 0.273609 55.6165 0 56.9275 0C60.8109 0 64.1548 2.38355 65.6639 5.80629C65.6639 5.80629 65.6717 5.8326 65.6743 5.8326C65.7264 5.98256 65.7916 6.16145 65.7916 6.16145Z" fill="url(#paint5_linear_3344_3352)"/>
<path d="M38.756 25.9795C37.3173 24.5668 35.3522 23.696 33.1863 23.696C33.0638 23.696 32.9465 23.6986 32.8266 23.7039H32.8162C32.6781 23.7091 32.5399 23.7196 32.4044 23.7354C32.2819 23.746 32.162 23.7644 32.0421 23.7828C30.3819 24.0406 28.8468 24.8825 27.6609 26.1058L23.7488 30.1416L13.2949 19.4129L0 5.76671V0.123535H9.63558C10.944 0.123535 12.195 0.394513 13.334 0.886482C14.4807 1.38371 15.518 2.0993 16.3886 2.99379L20.0322 6.75854L23.5872 10.4075L33.2541 20.3337L38.756 25.9795Z" fill="url(#paint6_linear_3344_3352)"/>
<path d="M66.3727 54.3982V54.8612L53.0779 41.1834V40.7098L66.3727 54.3982Z" fill="url(#paint7_linear_3344_3352)"/>
<path d="M33.1967 17.8925C34.3773 17.8925 35.3339 18.8606 35.3339 20.0498V25.3509H31.0569V20.0498C31.0569 18.858 32.016 17.8925 33.1941 17.8925H33.1967Z" fill="url(#paint8_linear_3344_3352)"/>
<path d="M42.6914 30.0179L33.1965 39.8494L19.2319 54.2822L15.6221 58.018C15.6117 58.0259 15.5986 58.0391 15.5882 58.0522C14.7151 58.9467 13.6804 59.6623 12.531 60.1595C11.3946 60.6515 10.1436 60.9198 8.83263 60.9198C4.9492 60.9198 1.60529 58.5416 0.0962302 55.1109C0.0936239 55.1109 0.0936239 55.1083 0.0936239 55.1057C0.077986 54.9662 0.062348 54.8215 0.0493164 54.6821L23.7486 30.1415L27.6607 26.1058C28.9326 24.793 30.6059 23.9222 32.4042 23.7354C32.5397 23.7196 32.6779 23.7091 32.816 23.7038H32.8264C32.9463 23.6986 33.0636 23.6959 33.1861 23.6959C35.352 23.6959 37.3171 24.5667 38.7558 25.9795L42.6914 30.0179Z" fill="url(#paint9_linear_3344_3352)"/>
<path d="M26.9415 46.3109L24.489 48.8444C20.457 46.4214 17.5223 42.3199 16.6387 37.5001C16.4563 36.5083 16.3599 35.4823 16.3599 34.4378C16.3599 33.0593 16.5267 31.686 16.8551 30.3574C17.0818 29.4418 18.0018 28.8841 18.9088 29.1156C19.8158 29.3445 20.3684 30.2732 20.1416 31.1887C19.894 32.1937 19.7611 33.2329 19.7507 34.28C19.7481 34.3326 19.7481 34.3852 19.7481 34.4378C19.7481 39.6048 22.675 44.0957 26.9415 46.3109Z" fill="url(#paint10_linear_3344_3352)"/>
<defs>
<linearGradient id="paint0_linear_3344_3352" x1="6.28385" y1="42.4671" x2="6.70608" y2="20.4681" gradientUnits="userSpaceOnUse">
<stop stop-color="#FC4554"/>
<stop offset="1" stop-color="#E31D4D"/>
</linearGradient>
<linearGradient id="paint1_linear_3344_3352" x1="26.5635" y1="40.0889" x2="42.8416" y2="38.8907" gradientUnits="userSpaceOnUse">
<stop stop-color="#540AD4"/>
<stop offset="0.85" stop-color="#610CF4"/>
</linearGradient>
<linearGradient id="paint2_linear_3344_3352" x1="60.3261" y1="23.7565" x2="59.2374" y2="10.5566" gradientUnits="userSpaceOnUse">
<stop stop-color="#FE915D"/>
<stop offset="0.31" stop-color="#FD7D5A"/>
<stop offset="0.93" stop-color="#FC4B54"/>
<stop offset="1" stop-color="#FC4554"/>
</linearGradient>
<linearGradient id="paint3_linear_3344_3352" x1="59.7266" y1="49.7811" x2="59.7266" y2="36.8399" gradientUnits="userSpaceOnUse">
<stop stop-color="#FC4554"/>
<stop offset="0.07" stop-color="#FC4B54"/>
<stop offset="0.69" stop-color="#FD7D5A"/>
<stop offset="1" stop-color="#FE915D"/>
</linearGradient>
<linearGradient id="paint4_linear_3344_3352" x1="60.412" y1="58.7837" x2="38.6061" y2="35.7676" gradientUnits="userSpaceOnUse">
<stop offset="0.01" stop-color="#A256EF"/>
<stop offset="0.26" stop-color="#9142F0"/>
<stop offset="1" stop-color="#610CF4"/>
</linearGradient>
<linearGradient id="paint5_linear_3344_3352" x1="60.3834" y1="2.20992" x2="37.5016" y2="25.1287" gradientUnits="userSpaceOnUse">
<stop stop-color="#FFD364"/>
<stop offset="0.17" stop-color="#FECE63"/>
<stop offset="0.34" stop-color="#FEC262"/>
<stop offset="0.5" stop-color="#FEAE5F"/>
<stop offset="0.67" stop-color="#FD925C"/>
<stop offset="0.84" stop-color="#FC6E58"/>
<stop offset="1" stop-color="#FC4554"/>
</linearGradient>
<linearGradient id="paint6_linear_3344_3352" x1="1.84006" y1="-1.74174" x2="34.4228" y2="30.3757" gradientUnits="userSpaceOnUse">
<stop stop-color="#FC4554"/>
<stop offset="0.49" stop-color="#FC6140"/>
<stop offset="1" stop-color="#E31D4D"/>
</linearGradient>
<linearGradient id="paint7_linear_3344_3352" x1="52.8798" y1="40.9098" x2="66.6984" y2="54.5318" gradientUnits="userSpaceOnUse">
<stop stop-color="#FC4554"/>
<stop offset="0.49" stop-color="#FC6140"/>
<stop offset="1" stop-color="#E31D4D"/>
</linearGradient>
<linearGradient id="paint8_linear_3344_3352" x1="33.1967" y1="26.0376" x2="33.1967" y2="18.5028" gradientUnits="userSpaceOnUse">
<stop offset="0.01" stop-color="#A256EF"/>
<stop offset="0.26" stop-color="#9142F0"/>
<stop offset="1" stop-color="#610CF4"/>
</linearGradient>
<linearGradient id="paint9_linear_3344_3352" x1="35.279" y1="27.3817" x2="4.50723" y2="59.885" gradientUnits="userSpaceOnUse">
<stop stop-color="#7B2AF2"/>
<stop offset="1" stop-color="#610CF4"/>
</linearGradient>
<linearGradient id="paint10_linear_3344_3352" x1="16.3599" y1="38.9524" x2="26.9415" y2="38.9524" gradientUnits="userSpaceOnUse">
<stop offset="0.15" stop-color="#610CF4"/>
<stop offset="1" stop-color="#540AD4"/>
</linearGradient>
</defs>
</svg>
