<svg width="55" height="57" viewBox="0 0 55 57" fill="none" xmlns="http://www.w3.org/2000/svg">
<path d="M53.2945 31.6069C51.5523 32.2657 49.8143 32.9307 48.0681 33.5794C47.8276 33.6683 47.8054 33.8199 47.8074 34.0261C47.8114 34.6869 47.7872 35.3498 47.8155 36.0087C47.8397 36.5624 47.5911 36.9363 47.1505 37.2152C46.7039 37.5002 46.2047 37.6659 45.7015 37.8114C44.9355 38.0317 44.9294 38.0337 45.2892 38.7209C45.9642 40.0204 46.3078 41.3967 46.3098 42.864C46.3098 44.3313 45.9763 45.7136 45.2932 47.0071C45.1235 47.3284 45.0487 47.6478 45.0507 48.0095C45.0588 50.0326 45.0608 52.0536 45.0527 54.0767C45.0467 55.9744 44.0644 56.9506 42.1768 56.9526C29.0704 56.9526 15.9621 56.9526 2.85571 56.9526C1.01051 56.9526 0.00202103 55.9501 0 54.107C0.00202103 37.0333 0.00202103 19.9577 0.00202103 2.88406C0.00202103 1.03684 1.00849 0.0263236 2.84561 0.0263236C15.8347 0.0263236 28.8259 0.050576 41.815 5.02918e-05C43.8462 -0.00803381 45.1012 0.958017 45.079 3.23773C45.0123 10.4326 45.0588 17.6274 45.0426 24.8223C45.0426 25.3276 45.18 25.564 45.6671 25.7459C48.3571 26.7504 51.0329 27.7952 53.7148 28.826C53.7876 28.8542 53.8604 28.8825 53.9331 28.9068C54.5071 29.0927 54.9659 29.406 54.9982 30.0669C55.0305 30.7015 54.6243 31.0531 54.0968 31.2956C53.83 31.3987 53.5612 31.5018 53.2945 31.6069ZM35.2406 23.2641C35.5519 23.159 35.8672 23.062 36.1764 22.9508C36.8777 22.6982 37.5891 22.682 38.2924 22.9104C38.8462 23.0903 39.3858 23.3126 39.9294 23.5208C41.2997 24.0462 42.6679 24.5757 44.1008 25.1275C44.1008 23.6764 44.1008 22.3162 44.1008 20.9561C44.1008 14.8869 44.1008 8.81981 44.1008 2.75067C44.1008 1.59464 43.4986 0.990353 42.3506 0.962059C42.2738 0.962059 42.195 0.962059 42.1182 0.962059C29.0482 0.962059 15.9782 0.962059 2.90826 0.962059C2.63542 0.962059 2.36662 0.966101 2.09985 1.04492C1.47939 1.22883 1.0671 1.69367 0.996366 2.33231C0.970093 2.56271 0.972114 2.79917 0.972114 3.03159C0.972114 20.0102 0.972114 36.9909 0.972114 53.9695C0.972114 54.1838 0.972114 54.398 0.992324 54.6102C1.05902 55.2812 1.43493 55.7076 2.06549 55.9239C2.36662 56.0269 2.67786 56.0189 2.9891 56.0189C14.1916 56.0189 25.3942 56.0189 36.5988 56.0189C38.4662 56.0189 40.3336 56.0209 42.2011 56.0189C43.5167 56.0168 44.1028 55.4388 44.1049 54.1494C44.1089 52.573 44.1089 50.9986 44.1008 49.4222C44.1008 49.2646 44.1877 49.0746 43.9917 48.9331C43.8906 49.0261 43.7916 49.1171 43.6946 49.208C40.8187 51.8636 37.5446 52.5306 33.8866 51.1179C32.4031 50.5439 31.235 49.5213 30.2224 48.3127C29.6262 47.4901 29.1978 46.5807 28.8097 45.647C28.3954 44.0645 28.2964 42.4679 28.6258 40.8571C28.8643 39.9113 29.2483 39.0241 29.7212 38.1732C29.7637 37.9125 29.5535 37.9731 29.4221 37.9388C28.8057 37.7771 28.1933 37.6093 27.6315 37.2961C27.0959 36.999 26.7927 36.5847 26.8352 35.94C26.8635 35.4974 26.8413 35.0527 26.8413 34.6081C26.8413 33.9654 26.5273 33.5552 25.8995 33.3773C24.224 32.7225 22.5506 32.0657 20.8711 31.4169C20.4366 31.2492 19.9981 31.0976 19.701 30.7055C19.4524 29.695 19.6585 29.3029 20.6468 28.9209C23.163 27.9508 25.6792 26.9828 28.1953 26.0127C28.7875 25.7843 29.3817 25.56 29.9738 25.3276C31.7321 24.6404 33.4884 23.9512 35.2447 23.2621L35.2406 23.2641ZM37.4193 34.8931C33.0074 34.7779 29.4039 38.4966 29.3574 42.7609C29.3089 47.193 32.8942 50.8551 37.3122 50.8855C41.7281 50.9178 45.3579 47.3103 45.368 42.9246C45.3761 38.4561 41.8595 34.9012 37.4213 34.8911L37.4193 34.8931Z" fill="#FC4554"/>
<path d="M53.2931 31.6081C53.5599 31.505 53.8287 31.3999 54.0955 31.2969C54.0995 33.5483 54.1035 35.7977 54.1035 38.0491C54.1035 38.3442 54.1035 38.617 54.3501 38.8474C54.5239 39.0091 54.5724 39.2476 54.5704 39.4901C54.5643 39.955 54.5562 40.4218 54.5744 40.8866C54.5866 41.2019 54.4896 41.3252 54.15 41.3394C52.8404 41.3939 52.8404 41.4061 52.8404 40.0883C52.8404 39.5669 52.7656 39.0334 53.2284 38.6312C53.3537 38.522 53.3032 38.3381 53.3032 38.1845C53.3032 35.9917 53.2992 33.7989 53.2951 31.6081H53.2931Z" fill="#FFF6E0"/>
<path d="M25.8961 33.3762C26.524 33.5527 26.8379 33.963 26.8379 34.607C26.8379 35.0516 26.8622 35.4962 26.8319 35.9388C26.7894 36.5836 27.0926 36.9958 27.6282 37.295C28.19 37.6082 28.8024 37.7739 29.4188 37.9376C29.5522 37.972 29.7603 37.9134 29.7179 38.1721C22.1168 38.1721 14.5137 38.1721 6.91264 38.1761C5.9668 38.1761 5.44739 38.6551 5.44941 39.5161C5.44941 40.3245 6.00115 40.86 6.86817 40.86C14.1196 40.86 21.3711 40.86 28.6245 40.856C28.2971 42.4668 28.3941 44.0634 28.8084 45.6458C22.9374 45.6458 17.0683 45.6438 11.1972 45.6438C9.69963 45.6438 8.20407 45.6378 6.70649 45.6479C5.98094 45.6539 5.4676 46.1794 5.44739 46.8969C5.42314 47.8023 5.97286 48.3298 6.95306 48.3298C13.485 48.3298 20.015 48.3298 26.5469 48.3298C27.7717 48.3298 28.9964 48.3176 30.2191 48.3116C31.2317 49.5201 32.3998 50.5428 33.8832 51.1168C37.5413 52.5315 40.8154 51.8645 43.6913 49.2069C43.7883 49.1159 43.8873 49.027 43.9884 48.932C44.1824 49.0755 44.0955 49.2655 44.0975 49.4211C44.1056 50.9955 44.1056 52.5719 44.1016 54.1483C44.0995 55.4397 43.5114 56.0157 42.1977 56.0177C40.3303 56.0218 38.4629 56.0177 36.5955 56.0177C25.3929 56.0177 14.1904 56.0177 2.98578 56.0177C2.67454 56.0177 2.36331 56.0279 2.06217 55.9228C1.43161 55.7065 1.0557 55.2821 0.989008 54.6091C0.966777 54.3969 0.968798 54.1827 0.968798 53.9684C0.968798 36.9898 0.968798 20.0091 0.968798 3.03047C0.968798 2.79805 0.966777 2.56159 0.99305 2.33119C1.06379 1.69255 1.47608 1.22771 2.09653 1.0438C2.36331 0.96498 2.6321 0.960938 2.90494 0.960938C15.9749 0.960938 29.0449 0.960938 42.1149 0.960938C42.1917 0.960938 42.2705 0.960938 42.3473 0.960938C43.4952 0.989232 44.0975 1.59352 44.0975 2.74955C44.1016 8.81869 44.0975 14.8858 44.0975 20.955C44.0975 22.3151 44.0975 23.6753 44.0975 25.1264C42.6666 24.5746 41.2964 24.0451 39.9261 23.5196C39.3825 23.3115 38.8428 23.0892 38.2891 22.9093C37.5858 22.6809 36.8744 22.6971 36.1731 22.9497C35.8638 23.0609 35.5486 23.1599 35.2373 23.263C34.9847 23.2549 34.7321 23.2367 34.4815 23.2367C25.8092 23.2367 17.139 23.2367 8.46681 23.2367C7.86454 23.2367 7.26025 23.2266 6.65799 23.2407C6.00115 23.2569 5.47973 23.7743 5.44335 24.417C5.38676 25.4133 5.90212 25.9226 6.98337 25.9226C13.8266 25.9226 20.6718 25.9226 27.515 25.9267C27.7393 25.9267 27.9839 25.8458 28.19 26.0136C25.6738 26.9817 23.1556 27.9517 20.6415 28.9218C19.6532 29.3038 19.445 29.6959 19.6956 30.7064C15.4212 30.7064 11.1467 30.7064 6.8702 30.7064C5.97084 30.7064 5.44941 31.1935 5.44537 32.0241C5.43931 32.8932 5.95265 33.3883 6.89041 33.3903C9.22267 33.3964 11.5529 33.3944 13.8852 33.3903C17.8868 33.3863 21.8905 33.3802 25.8921 33.3762H25.8961ZM15.1322 13.2569C15.4515 12.9517 15.7324 12.7092 15.981 12.4404C17.3674 10.9408 17.618 8.72572 16.6156 6.9169C15.6111 5.10808 13.5335 4.12789 11.5287 4.55028C9.60464 4.95449 8.31725 6.1186 7.81806 8.01028C7.3128 9.92217 7.85039 11.5915 9.35202 12.8991C9.68144 13.1861 9.71984 13.2932 9.3217 13.5277C8.76794 13.8551 8.32129 14.3219 7.92315 14.8333C6.85201 16.2136 6.72266 17.8203 6.76712 19.4776C6.78531 20.2153 6.88636 20.3284 7.60585 20.3305C9.41467 20.3325 11.2235 20.3305 13.0323 20.3305C14.4713 20.3305 15.9102 20.3264 17.3492 20.3325C17.709 20.3325 18.0505 20.288 18.0525 19.8393C18.0546 19.0249 18.1374 18.2023 18.0061 17.3939C17.711 15.577 16.7368 14.2108 15.1322 13.2569ZM31.4075 10.9873C33.8954 10.9873 36.3833 10.9893 38.8711 10.9873C39.8291 10.9873 40.3505 10.5123 40.3546 9.65944C40.3586 8.82677 39.8028 8.30535 38.8893 8.30333C33.952 8.30131 29.0146 8.30131 24.0772 8.30333C23.1233 8.30333 22.6059 8.78231 22.6039 9.63923C22.6039 10.5062 23.1172 10.9852 24.059 10.9873C26.5085 10.9893 28.958 10.9873 31.4075 10.9873ZM31.458 18.4549C33.9459 18.4549 36.4338 18.459 38.9217 18.4549C39.8291 18.4529 40.3485 17.9638 40.3525 17.1332C40.3566 16.2904 39.8493 15.7751 38.9601 15.773C33.9641 15.767 28.9681 15.771 23.9721 15.771C23.6326 15.771 23.3214 15.8478 23.0566 16.0762C22.6201 16.4541 22.4564 17.0705 22.6524 17.6122C22.8383 18.1255 23.3395 18.4529 23.9903 18.4549C26.4782 18.461 28.9661 18.457 31.454 18.457L31.458 18.4549Z" fill="#FFE3E6"/>
<path d="M37.4199 34.8912C41.858 34.9013 45.3746 38.4563 45.3665 42.9248C45.3584 47.3104 41.7287 50.9179 37.3107 50.8856C32.8948 50.8533 29.3075 47.1912 29.356 42.7611C29.4024 38.4967 33.008 34.778 37.4178 34.8932L37.4199 34.8912ZM37.3673 36.5282C33.8447 36.5282 31.0132 39.3415 31.0092 42.8419C31.0051 46.3585 33.875 49.2506 37.3653 49.2506C40.8596 49.2506 43.7396 46.3525 43.7295 42.846C43.7214 39.3476 40.8798 36.5282 37.3673 36.5303V36.5282Z" fill="#FF909A"/>
<path d="M28.192 26.0148C27.9858 25.847 27.7433 25.9279 27.517 25.9279C20.6738 25.9238 13.8285 25.9238 6.98535 25.9238C5.90612 25.9238 5.39076 25.4145 5.44533 24.4182C5.4817 23.7755 6.00313 23.2581 6.65996 23.2419C7.26223 23.2278 7.86449 23.2379 8.46878 23.2379C17.141 23.2379 25.8112 23.2379 34.4834 23.2379C34.7361 23.2379 34.9887 23.254 35.2393 23.2641C33.483 23.9533 31.7247 24.6425 29.9685 25.3296C29.3763 25.56 28.7821 25.7864 28.19 26.0148H28.192Z" fill="#FFADB4"/>
<path d="M30.2139 48.3102C28.9892 48.3162 27.7644 48.3284 26.5417 48.3284C20.0097 48.3284 13.4798 48.3284 6.94784 48.3284C5.96764 48.3284 5.41792 47.8009 5.44218 46.8955C5.46037 46.178 5.97371 45.6505 6.70128 45.6465C8.19886 45.6364 9.69442 45.6424 11.192 45.6424C17.0631 45.6424 22.9321 45.6424 28.8032 45.6444C29.1913 46.5761 29.6217 47.4876 30.2159 48.3102H30.2139Z" fill="#FFADB4"/>
<path d="M28.6204 40.8558C21.369 40.8558 14.1175 40.8619 6.86407 40.8598C5.99705 40.8598 5.44531 40.3243 5.44531 39.5159C5.44531 38.6549 5.96269 38.1759 6.90854 38.1759C14.5096 38.1759 22.1127 38.1739 29.7138 38.1719C29.2409 39.0227 28.8569 39.91 28.6184 40.8558H28.6204Z" fill="#FFADB4"/>
<path d="M25.8921 33.3729C21.8904 33.379 17.8868 33.385 13.8851 33.3871C11.5529 33.3891 9.22263 33.3911 6.89037 33.3871C5.95463 33.385 5.44129 32.8899 5.44534 32.0208C5.44938 31.1902 5.9708 30.7031 6.87016 30.7031C11.1446 30.7031 15.4191 30.7031 19.6956 30.7031C19.9907 31.0952 20.4312 31.2468 20.8658 31.4145C22.5432 32.0633 24.2166 32.7201 25.8941 33.3749L25.8921 33.3729Z" fill="#FFADB4"/>
<path d="M15.1297 13.2572C16.7344 14.2111 17.7065 15.5773 18.0036 17.3942C18.135 18.2026 18.0521 19.0252 18.0501 19.8397C18.0501 20.2883 17.7085 20.3348 17.3468 20.3328C15.9078 20.3267 14.4688 20.3308 13.0299 20.3308C11.221 20.3308 9.41222 20.3308 7.60341 20.3308C6.88392 20.3308 6.78489 20.2156 6.76468 19.4779C6.72224 17.8227 6.84956 16.2139 7.92071 14.8336C8.31885 14.3222 8.76347 13.8554 9.31926 13.528C9.71538 13.2935 9.679 13.1864 9.34957 12.8994C7.84795 11.5918 7.30834 9.92247 7.81561 8.01058C8.31481 6.1189 9.60422 4.95479 11.5262 4.55059C13.5331 4.12819 15.6107 5.10839 16.6131 6.91721C17.6156 8.72603 17.365 10.9411 15.9785 12.4407C15.73 12.7095 15.449 12.952 15.1297 13.2572ZM8.59169 9.19288C8.57552 11.3473 10.2611 13.0753 12.3932 13.0894C14.5274 13.1036 16.2736 11.3897 16.2898 9.26564C16.3059 7.186 14.5739 5.41761 12.4943 5.39133C10.356 5.36304 8.60786 7.06676 8.59169 9.19288ZM12.3953 19.3869C13.812 19.3869 15.2287 19.3869 16.6455 19.3869C16.8779 19.3869 17.1083 19.4274 17.1164 19.0555C17.1447 17.5801 16.9244 16.1695 15.8512 15.07C15.2247 14.4294 14.5578 13.726 13.5109 13.9201C12.755 14.0615 12.0072 14.0817 11.2655 13.8877C11.0008 13.819 10.7845 13.8473 10.546 13.9645C8.50478 14.9548 7.69435 16.6303 7.77115 18.8372C7.7853 19.2616 7.87422 19.4072 8.32087 19.397C9.679 19.3688 11.0371 19.3869 12.3953 19.3869Z" fill="#FC4554"/>
<path d="M31.4013 10.9823C28.9518 10.9823 26.5023 10.9823 24.0528 10.9823C23.111 10.9823 22.5956 10.5013 22.5977 9.63429C22.5977 8.77535 23.1171 8.29839 24.071 8.29839C29.0084 8.29637 33.9457 8.29637 38.8831 8.29839C39.7966 8.29839 40.3524 8.82184 40.3483 9.6545C40.3443 10.5074 39.8229 10.9803 38.8649 10.9823C36.377 10.9864 33.8891 10.9823 31.4013 10.9823Z" fill="#FFADB4"/>
<path d="M31.4539 18.4607C28.966 18.4607 26.4781 18.4647 23.9902 18.4587C23.3394 18.4587 22.8382 18.1293 22.6523 17.6159C22.4562 17.0743 22.6199 16.4579 23.0565 16.0799C23.3212 15.8516 23.6325 15.7748 23.972 15.7748C28.968 15.7748 33.964 15.7707 38.96 15.7768C39.8472 15.7768 40.3565 16.2942 40.3524 17.1369C40.3484 17.9656 39.829 18.4567 38.9216 18.4587C36.4337 18.4647 33.9458 18.4587 31.4579 18.4587L31.4539 18.4607Z" fill="#FFADB4"/>
<path d="M37.366 36.5333C40.8805 36.5333 43.7201 39.3526 43.7282 42.849C43.7362 46.3555 40.8583 49.2536 37.3639 49.2536C33.8736 49.2536 31.0038 46.3635 31.0078 42.8449C31.0119 39.3445 33.8433 36.5333 37.366 36.5312V36.5333Z" fill="#FFF6E0"/>
<path fill-rule="evenodd" clip-rule="evenodd" d="M40.5578 40.5282C40.7985 40.7438 40.7996 41.0943 40.5602 41.311L36.1598 45.2965C36.0444 45.401 35.8876 45.4598 35.724 45.4598C35.5604 45.4598 35.4035 45.401 35.2881 45.2965L33.7882 43.938C33.5488 43.7212 33.5499 43.3707 33.7906 43.1552C34.0313 42.9396 34.4205 42.9406 34.6598 43.1574L35.724 44.1212L39.6886 40.5304C39.9279 40.3136 40.3171 40.3127 40.5578 40.5282Z" fill="#610CF4"/>
<path d="M8.58996 9.19252C8.60613 7.0664 10.3543 5.36268 12.4926 5.39097C14.5722 5.41725 16.3042 7.18564 16.288 9.26528C16.2719 11.3894 14.5257 13.1032 12.3915 13.0891C10.2593 13.0749 8.57379 11.349 8.58996 9.19252Z" fill="#FFFBFB"/>
<path d="M12.3949 19.3871C11.0368 19.3871 9.67666 19.369 8.32055 19.3973C7.87391 19.4074 7.787 19.2618 7.77084 18.8374C7.69202 16.6305 8.50245 14.9571 10.5457 13.9647C10.7842 13.8495 11.0004 13.8192 11.2652 13.8879C12.0069 14.082 12.7547 14.0597 13.5106 13.9203C14.5574 13.7263 15.2264 14.4276 15.8509 15.0702C16.9241 16.1697 17.1444 17.5804 17.1161 19.0557C17.11 19.4255 16.8796 19.3871 16.6452 19.3871C15.2284 19.3871 13.8117 19.3871 12.3949 19.3871Z" fill="#FFADB4"/>
</svg>
