<svg width="170" height="35" viewBox="0 0 170 35" fill="none" xmlns="http://www.w3.org/2000/svg">
<g clip-path="url(#clip0_3722_1018)">
<path d="M17.3325 14.4471C17.9151 14.0249 18.6009 13.7399 19.3434 13.6328C18.3917 13.7806 17.5118 14.2632 16.832 14.9644L17.3325 14.4471Z" fill="#8900EA"/>
<path d="M19.5514 13.6016C19.4812 13.6076 19.4125 13.6182 19.3438 13.6287C19.4125 13.6182 19.4812 13.6091 19.5514 13.6016Z" fill="#8900EA"/>
<path d="M56.8373 23.6134H53.3609L47.267 15.5138H47.1953V23.6134H44.1133V10.75H47.4104L53.6836 19.0878H53.7553V10.75H56.8373V23.6134Z" fill="#FC4554"/>
<path d="M69.9196 23.6134H60.0625V10.75H69.9196V13.3543H63.3597V15.6737H69.3459V18.2147H63.3597V21.0105H69.9196V23.6149V23.6134Z" fill="#FC4554"/>
<path d="M71.1406 23.6134L76.0692 16.9117L71.4992 10.75H75.2624L78.0935 14.6723H78.1652L80.9962 10.75H84.652L80.0819 16.8801L85.0105 23.6134H81.2114L78.0935 19.1662H78.0218L74.8322 23.6134H71.1406Z" fill="#FC4554"/>
<path d="M92.0909 23.8049C90.9914 23.8049 89.9904 23.6269 89.0881 23.2726C88.1857 22.9182 87.4657 22.3708 86.9278 21.6288C86.39 20.8884 86.1211 19.9293 86.1211 18.7545V10.75H89.49V18.278C89.49 19.1255 89.72 19.7921 90.1802 20.2791C90.6403 20.7662 91.3066 21.009 92.1791 21.009C93.0516 21.009 93.7477 20.7496 94.1959 20.2309C94.6441 19.7121 94.8682 19.0667 94.8682 18.2931V10.75H98.1654V18.7862C98.1654 19.9082 97.9024 20.8401 97.3766 21.5821C96.8507 22.324 96.1306 22.879 95.2163 23.2499C94.302 23.6209 93.2592 23.8064 92.0894 23.8064L92.0909 23.8049Z" fill="#FC4554"/>
<path d="M106.661 23.8041C105.466 23.8041 104.42 23.6262 103.525 23.2718C102.629 22.9174 101.924 22.4122 101.41 21.7547C100.896 21.0987 100.603 20.3251 100.531 19.4354H103.864C103.996 20.0808 104.315 20.5739 104.823 20.9117C105.331 21.251 105.986 21.4199 106.786 21.4199C107.48 21.4199 108.014 21.2933 108.391 21.0384C108.767 20.7851 108.956 20.4352 108.956 19.9903C108.956 19.651 108.833 19.366 108.588 19.1323C108.343 18.9 107.946 18.7296 107.396 18.6241L104.904 18.0993C103.565 17.8233 102.573 17.38 101.93 16.7647C101.284 16.1509 100.962 15.3773 100.962 14.4454C100.962 13.6506 101.186 12.963 101.634 12.3809C102.082 11.7988 102.712 11.3479 103.525 11.0312C104.338 10.713 105.294 10.5547 106.392 10.5547C107.49 10.5547 108.439 10.7221 109.268 11.0553C110.099 11.3886 110.759 11.8606 111.249 12.4684C111.739 13.0776 112.014 13.8045 112.074 14.652H108.739C108.596 14.0699 108.303 13.622 107.861 13.3098C107.418 12.9977 106.863 12.8408 106.193 12.8408C105.572 12.8408 105.082 12.963 104.723 13.2058C104.365 13.4501 104.185 13.7668 104.185 14.1588C104.185 14.4559 104.308 14.7168 104.553 14.9445C104.798 15.1722 105.16 15.3336 105.638 15.4286L108.255 15.9534C109.57 16.2188 110.551 16.6576 111.203 17.2714C111.854 17.8851 112.18 18.7115 112.18 19.7491C112.18 20.9992 111.696 21.9854 110.727 22.7108C109.759 23.4361 108.403 23.7981 106.659 23.7981L106.661 23.8041Z" fill="#FC4554"/>
<path d="M120.695 23.8722C119.345 23.8722 118.159 23.5948 117.138 23.0383C116.116 22.4818 115.322 21.7037 114.754 20.7039C114.186 19.7026 113.902 18.5414 113.902 17.2174C113.902 15.8933 114.186 14.7322 114.754 13.7308C115.322 12.731 116.116 11.9514 117.138 11.3964C118.16 10.84 119.345 10.5625 120.695 10.5625C121.807 10.5625 122.803 10.7555 123.688 11.1416C124.572 11.5276 125.298 12.0735 125.864 12.7778C126.432 13.482 126.782 14.3054 126.913 15.2479H123.473C123.389 14.6447 123.09 14.1516 122.576 13.7716C122.062 13.39 121.435 13.2 120.694 13.2C119.953 13.2 119.373 13.3674 118.847 13.7007C118.321 14.0339 117.915 14.4999 117.628 15.0986C117.341 15.6973 117.198 16.403 117.198 17.2189C117.198 18.0347 117.341 18.7269 117.628 19.3316C117.915 19.9348 118.321 20.4038 118.847 20.7371C119.373 21.0703 119.989 21.2377 120.694 21.2377C121.435 21.2377 122.062 21.0477 122.576 20.6662C123.09 20.2847 123.389 19.7931 123.473 19.1899H126.913C126.782 20.1324 126.432 20.9557 125.864 21.66C125.297 22.3642 124.571 22.9101 123.688 23.2962C122.803 23.6822 121.805 23.8753 120.695 23.8753V23.8722Z" fill="#FFA631"/>
<path d="M135.067 23.8074C133.752 23.8074 132.581 23.5344 131.555 22.99C130.527 22.4441 129.717 21.6781 129.126 20.6873C128.534 19.6981 128.238 18.5308 128.238 17.1857C128.238 15.8406 128.534 14.6583 129.126 13.6675C129.717 12.6782 130.527 11.9122 131.555 11.3723C132.583 10.8324 133.752 10.5625 135.067 10.5625C136.382 10.5625 137.57 10.8294 138.597 11.3648C139.625 11.9001 140.43 12.6617 141.016 13.6509C141.602 14.6417 141.895 15.8194 141.895 17.1842C141.895 18.5489 141.599 19.6996 141.007 20.6933C140.416 21.6886 139.606 22.4562 138.578 22.9961C137.55 23.536 136.379 23.8059 135.066 23.8059L135.067 23.8074ZM135.067 21.2031C135.784 21.2031 136.406 21.0357 136.932 20.7024C137.457 20.3691 137.867 19.9001 138.16 19.2969C138.452 18.6937 138.599 17.9895 138.599 17.1842C138.599 16.3789 138.452 15.6596 138.16 15.0564C137.867 14.4532 137.457 13.9872 136.932 13.6585C136.406 13.3297 135.784 13.1668 135.067 13.1668C134.35 13.1668 133.744 13.3312 133.212 13.6585C132.68 13.9872 132.267 14.4532 131.975 15.0564C131.682 15.6596 131.535 16.3699 131.535 17.1842C131.535 17.9985 131.682 18.6937 131.975 19.2969C132.267 19.9001 132.68 20.3691 133.212 20.7024C133.744 21.0357 134.362 21.2031 135.067 21.2031Z" fill="#FFA631"/>
<path d="M144.477 23.6134V10.75H151.413C152.345 10.75 153.162 10.8902 153.868 11.1707C154.573 11.4512 155.125 11.8539 155.526 12.3771C155.926 12.9019 156.126 13.5232 156.126 14.2426C156.126 14.8985 155.947 15.4837 155.589 15.9979C155.23 16.5121 154.656 16.8695 153.868 17.0701V17.1334C154.621 17.1334 155.185 17.3008 155.562 17.6341C155.938 17.9674 156.126 18.468 156.126 19.1346V23.6134H152.829V18.8495H147.775V23.6134H144.478H144.477ZM147.774 16.2437H151.196C151.698 16.2437 152.108 16.117 152.424 15.8622C152.741 15.6088 152.899 15.2529 152.899 14.7975C152.899 14.3421 152.741 13.9741 152.424 13.7253C152.108 13.4765 151.698 13.3528 151.196 13.3528H147.774V16.2437Z" fill="#FFA631"/>
<path d="M169.029 23.6134H159.172V10.75H169.029V13.3543H162.469V15.6737H168.455V18.2147H162.469V21.0105H169.029V23.6149V23.6134Z" fill="#FFA631"/>
<path d="M43.1617 31.0283V31.0072C43.1617 28.8809 44.7482 27.1406 47.0235 27.1406C48.4099 27.1406 49.2674 27.6111 49.9442 28.2943L48.9074 29.5007C48.3248 28.9774 47.7645 28.6562 47.0131 28.6562C45.7641 28.6562 44.8648 29.7027 44.8648 30.9846V31.0057C44.8648 32.2875 45.7432 33.3552 47.0131 33.3552C47.8601 33.3552 48.3785 33.0234 48.9597 32.479L49.9965 33.5361C49.2346 34.358 48.398 34.8707 46.9593 34.8707C44.7796 34.8707 43.1602 33.1727 43.1602 31.0253L43.1617 31.0283Z" fill="#610CF4"/>
<path d="M53.8372 27.2109H55.3401L58.5148 34.742H56.8117L56.1349 33.0651H53.0021L52.3253 34.742H50.6641L53.8387 27.2109H53.8372ZM55.5508 31.6128L54.5663 29.1879L53.5818 31.6128H55.5493H55.5508Z" fill="#610CF4"/>
<path d="M59.6562 27.2656H62.5456C64.8731 27.2656 66.4821 28.8792 66.4821 30.9829V31.004C66.4821 33.1077 64.8731 34.7424 62.5456 34.7424H59.6562V27.2656ZM61.2862 28.7495V33.257H62.5456C63.8677 33.257 64.779 32.3491 64.779 31.0251V31.004C64.779 29.68 63.8692 28.7495 62.5456 28.7495H61.2862Z" fill="#610CF4"/>
<path d="M67.9336 27.265H73.521V28.7278H69.553V30.2449H73.0444V31.7076H69.553V33.2775H73.5748V34.7403H67.9351V27.2635L67.9336 27.265ZM71.3727 25L72.7591 25.6092L71.3204 26.6769H70.0924L71.3727 25Z" fill="#610CF4"/>
<path d="M75.0234 27.2656H76.7803L78.7269 30.4279L80.6736 27.2656H82.4305V34.7424H80.811V29.8609L78.7269 33.0549H78.6851L76.622 29.8926V34.7424H75.0234V27.2656Z" fill="#610CF4"/>
<path d="M84.2812 27.2656H85.9112V34.7424H84.2812V27.2656Z" fill="#610CF4"/>
<path d="M87.4351 31.0283V31.0072C87.4351 28.8809 89.0217 27.1406 91.297 27.1406C92.6833 27.1406 93.5409 27.6111 94.2176 28.2943L93.1808 29.5007C92.5982 28.9774 92.038 28.6562 91.2865 28.6562C90.0376 28.6562 89.1382 29.7027 89.1382 30.9846V31.0057C89.1382 32.2875 90.0166 33.3552 91.2865 33.3552C92.1336 33.3552 92.652 33.0234 93.2331 32.479L94.2699 33.5361C93.508 34.358 92.6714 34.8707 91.2327 34.8707C89.053 34.8707 87.4336 33.1727 87.4336 31.0253L87.4351 31.0283Z" fill="#610CF4"/>
<path d="M95.0312 31.0283V31.0072C95.0312 28.8809 96.6925 27.1406 98.9783 27.1406C101.264 27.1406 102.904 28.8598 102.904 30.9861V31.0072C102.904 33.1335 101.243 34.8737 98.9574 34.8737C96.6716 34.8737 95.0312 33.1546 95.0312 31.0283ZM101.2 31.0283V31.0072C101.2 29.7254 100.269 28.6577 98.9559 28.6577C97.6427 28.6577 96.7344 29.7042 96.7344 30.9861V31.0072C96.7344 32.289 97.6651 33.3567 98.9783 33.3567C100.291 33.3567 101.201 32.3101 101.201 31.0283H101.2Z" fill="#610CF4"/>
<path d="M0.976562 3.08594L8.59723 10.9623V23.4668L6.95686 25.1633L0.976562 31.3431V3.08594Z" fill="url(#paint0_linear_3722_1018)"/>
<path d="M19.8735 29.3455C14.6252 29.3455 10.3555 25.0356 10.3555 19.7379C10.3555 18.9462 10.4511 18.1605 10.6393 17.399C10.7693 16.8742 11.2967 16.5545 11.8166 16.6857C12.3365 16.8169 12.6532 17.3492 12.5232 17.874C12.3738 18.4787 12.2976 19.106 12.2976 19.7364C12.2976 23.9528 15.6964 27.3835 19.8735 27.3835C22.827 27.3835 25.5311 25.6327 26.7636 22.9228C26.9877 22.4312 27.5628 22.2156 28.0514 22.4403C28.5384 22.6665 28.752 23.2486 28.5294 23.7402C26.9817 27.1438 23.5844 29.344 19.8749 29.344L19.8735 29.3455Z" fill="url(#paint1_linear_3722_1018)"/>
<path d="M39.023 5.48281V13.4738H31.4023V10.7714L38.6107 3.32031C38.8751 3.98685 39.0215 4.71824 39.0215 5.48281H39.023Z" fill="url(#paint2_linear_3722_1018)"/>
<path d="M39.023 20.6484V31.4503L31.4023 23.6102V20.6484H39.023Z" fill="url(#paint3_linear_3722_1018)"/>
<path d="M39.0205 31.4433V34.9163H34.0292C33.2792 34.9163 32.5621 34.7609 31.9107 34.4789C31.2519 34.1954 30.6573 33.7837 30.1583 33.271L20.0039 22.8386L25.4464 17.2031L25.8796 17.648L31.3998 23.3317V23.6031L39.0205 31.4433Z" fill="url(#paint4_linear_3722_1018)"/>
<path d="M38.6881 3.53177H38.6866L32.663 9.75987L31.4006 11.0658L31.0226 11.4564L25.4472 17.2064L23.1913 14.8916C22.3667 14.0818 21.2402 13.5827 19.9987 13.5827C19.93 13.5827 19.8613 13.5842 19.7926 13.5872H19.7866C19.7074 13.5902 19.6282 13.5963 19.5506 13.6053C18.7274 13.6852 17.9685 13.9853 17.332 14.4468L20.0376 11.6554L27.6478 3.80472L29.7363 1.64675C30.2353 1.13403 30.8299 0.720831 31.4873 0.438832C32.1401 0.156834 32.8557 0 33.6072 0C35.8332 0 37.7499 1.36626 38.6149 3.32819C38.6149 3.32819 38.6194 3.34327 38.6209 3.34327C38.6508 3.42922 38.6881 3.53177 38.6881 3.53177Z" fill="url(#paint5_linear_3722_1018)"/>
<path d="M23.1917 14.8911C22.367 14.0813 21.2406 13.5821 19.9991 13.5821C19.9289 13.5821 19.8616 13.5836 19.7929 13.5866H19.7869C19.7078 13.5897 19.6286 13.5957 19.5509 13.6047C19.4807 13.6108 19.412 13.6213 19.3432 13.6319C18.3916 13.7797 17.5117 14.2622 16.8319 14.9635L14.5895 17.2768L8.59723 11.1271L0.976562 3.305V0.0703125H6.49971C7.24968 0.0703125 7.96678 0.225638 8.61964 0.507637C9.27698 0.792651 9.87157 1.20283 10.3706 1.71556L12.4591 3.87353L14.4969 5.96514L20.0379 11.6549L23.1917 14.8911Z" fill="url(#paint6_linear_3722_1018)"/>
<path d="M39.023 31.1821V31.4475L31.4023 23.6074V23.3359L39.023 31.1821Z" fill="url(#paint7_linear_3722_1018)"/>
<path d="M20.0039 10.2578C20.6806 10.2578 21.2289 10.8128 21.2289 11.4944V14.533H18.7773V11.4944C18.7773 10.8113 19.3271 10.2578 20.0024 10.2578H20.0039Z" fill="url(#paint8_linear_3722_1018)"/>
<path d="M25.4465 17.2097L20.004 22.8451L11.9994 31.1181L9.93029 33.2595C9.92431 33.264 9.91684 33.2716 9.91086 33.2791C9.41039 33.7918 8.81729 34.202 8.15846 34.487C7.50709 34.769 6.78999 34.9228 6.03853 34.9228C3.81254 34.9228 1.8958 33.5596 1.0308 31.5931C1.0293 31.5931 1.0293 31.5916 1.0293 31.5901C1.02034 31.5102 1.01138 31.4273 1.00391 31.3473L14.5884 17.2806L16.8309 14.9673C17.5599 14.2148 18.519 13.7156 19.5499 13.6086C19.6275 13.5995 19.7067 13.5935 19.7859 13.5905H19.7919C19.8606 13.5874 19.9278 13.5859 19.998 13.5859C21.2395 13.5859 22.366 14.0851 23.1906 14.8949L25.4465 17.2097Z" fill="url(#paint9_linear_3722_1018)"/>
<path d="M16.4209 26.5427L15.0151 27.9949C12.704 26.606 11.0218 24.255 10.5153 21.4923C10.4107 20.9238 10.3555 20.3357 10.3555 19.737C10.3555 18.9468 10.4511 18.1596 10.6393 17.3981C10.7693 16.8733 11.2967 16.5536 11.8166 16.6863C12.3365 16.8175 12.6532 17.3498 12.5232 17.8746C12.3813 18.4507 12.3051 19.0463 12.2991 19.6465C12.2976 19.6767 12.2976 19.7068 12.2976 19.737C12.2976 22.6987 13.9753 25.2729 16.4209 26.5427Z" fill="url(#paint10_linear_3722_1018)"/>
</g>
<defs>
<linearGradient id="paint0_linear_3722_1018" x1="4.57849" y1="24.3444" x2="4.82052" y2="11.7345" gradientUnits="userSpaceOnUse">
<stop stop-color="#FC4554"/>
<stop offset="1" stop-color="#E31D4D"/>
</linearGradient>
<linearGradient id="paint1_linear_3722_1018" x1="16.2028" y1="22.9771" x2="25.5335" y2="22.2903" gradientUnits="userSpaceOnUse">
<stop stop-color="#540AD4"/>
<stop offset="0.85" stop-color="#610CF4"/>
</linearGradient>
<linearGradient id="paint2_linear_3722_1018" x1="35.557" y1="13.614" x2="34.933" y2="6.04775" gradientUnits="userSpaceOnUse">
<stop stop-color="#FE915D"/>
<stop offset="0.31" stop-color="#FD7D5A"/>
<stop offset="0.93" stop-color="#FC4B54"/>
<stop offset="1" stop-color="#FC4554"/>
</linearGradient>
<linearGradient id="paint3_linear_3722_1018" x1="35.2134" y1="28.5384" x2="35.2134" y2="21.1204" gradientUnits="userSpaceOnUse">
<stop stop-color="#FC4554"/>
<stop offset="0.07" stop-color="#FC4B54"/>
<stop offset="0.69" stop-color="#FD7D5A"/>
<stop offset="1" stop-color="#FE915D"/>
</linearGradient>
<linearGradient id="paint4_linear_3722_1018" x1="35.6038" y1="33.6918" x2="23.1045" y2="20.4989" gradientUnits="userSpaceOnUse">
<stop offset="0.01" stop-color="#A256EF"/>
<stop offset="0.26" stop-color="#9142F0"/>
<stop offset="1" stop-color="#610CF4"/>
</linearGradient>
<linearGradient id="paint5_linear_3722_1018" x1="35.5882" y1="1.26673" x2="22.4722" y2="14.4039" gradientUnits="userSpaceOnUse">
<stop stop-color="#FFD364"/>
<stop offset="0.17" stop-color="#FECE63"/>
<stop offset="0.34" stop-color="#FEC262"/>
<stop offset="0.5" stop-color="#FEAE5F"/>
<stop offset="0.67" stop-color="#FD925C"/>
<stop offset="0.84" stop-color="#FC6E58"/>
<stop offset="1" stop-color="#FC4554"/>
</linearGradient>
<linearGradient id="paint6_linear_3722_1018" x1="2.03129" y1="-0.99887" x2="20.7079" y2="17.411" gradientUnits="userSpaceOnUse">
<stop stop-color="#FC4554"/>
<stop offset="0.49" stop-color="#FC6140"/>
<stop offset="1" stop-color="#E31D4D"/>
</linearGradient>
<linearGradient id="paint7_linear_3722_1018" x1="31.2888" y1="23.4505" x2="39.2097" y2="31.2587" gradientUnits="userSpaceOnUse">
<stop stop-color="#FC4554"/>
<stop offset="0.49" stop-color="#FC6140"/>
<stop offset="1" stop-color="#E31D4D"/>
</linearGradient>
<linearGradient id="paint8_linear_3722_1018" x1="20.0039" y1="14.9266" x2="20.0039" y2="10.6077" gradientUnits="userSpaceOnUse">
<stop offset="0.01" stop-color="#A256EF"/>
<stop offset="0.26" stop-color="#9142F0"/>
<stop offset="1" stop-color="#610CF4"/>
</linearGradient>
<linearGradient id="paint9_linear_3722_1018" x1="21.1977" y1="15.6987" x2="3.5592" y2="34.3297" gradientUnits="userSpaceOnUse">
<stop stop-color="#7B2AF2"/>
<stop offset="1" stop-color="#610CF4"/>
</linearGradient>
<linearGradient id="paint10_linear_3722_1018" x1="10.3555" y1="22.3247" x2="16.4209" y2="22.3247" gradientUnits="userSpaceOnUse">
<stop offset="0.15" stop-color="#610CF4"/>
<stop offset="1" stop-color="#540AD4"/>
</linearGradient>
<clipPath id="clip0_3722_1018">
<rect width="168.05" height="34.9196" fill="white" transform="translate(0.976562)"/>
</clipPath>
</defs>
</svg>
