<svg width="32" height="31" viewBox="0 0 32 31" fill="none" xmlns="http://www.w3.org/2000/svg">
<rect width="32" height="31" rx="8" fill="#FEDADD"/>
<path d="M24.7298 10.942H19.0581V6.96258C19.0581 6.2068 18.4462 5.59497 17.6903 5.59497H14.5048C13.7489 5.59497 13.137 6.2068 13.137 6.96258V10.942H7.46276C6.70687 10.942 6.09497 11.5538 6.09497 12.3096V15.4947C6.09497 16.2505 6.70687 16.8623 7.46276 16.8623H13.1344V24.2274C13.1344 24.9831 13.7463 25.595 14.5022 25.595H17.6877C18.4436 25.595 19.0555 24.9831 19.0555 24.2274V16.8623H24.7272C25.4831 16.8623 26.095 16.2505 26.095 15.4947V12.3096C26.095 11.5538 25.4831 10.942 24.7272 10.942H24.7298Z" stroke="#FC4554" stroke-width="2.2375" stroke-miterlimit="10"/>
</svg>
