<svg width="26" height="26" viewBox="0 0 26 26" fill="none" xmlns="http://www.w3.org/2000/svg">
<path d="M7.33743 24.463V13.6419C7.33743 12.4383 7.33743 11.8365 7.61353 11.3317C7.88851 10.8268 8.39451 10.5011 9.40765 9.84971L11.754 8.34184C12.3456 7.96206 12.6409 7.7716 12.9722 7.7716C13.3035 7.7716 13.5988 7.96206 14.1916 8.34184L16.5368 9.84971C17.5499 10.5011 18.0559 10.8268 18.3309 11.3317C18.607 11.8365 18.607 12.4383 18.607 13.6419V24.463M12.9722 14.3204H12.9824M23.1148 24.463V17.8838C23.1148 15.3019 21.6949 15.0923 18.607 14.3204M2.82959 24.463V17.8838C2.82959 15.3019 4.24956 15.0923 7.33743 14.3204M1.70264 24.463H24.2418M12.9722 24.463V19.9551M12.9722 7.5586V5.2844M12.9722 5.2844V3.01696C12.9722 2.48278 12.9722 2.21569 13.1368 2.05003C13.6552 1.52825 15.7896 2.76114 16.601 3.26151C17.2862 3.68299 17.48 4.52596 17.48 5.2844H12.9722Z" stroke="black" stroke-width="2.11305" stroke-linecap="round" stroke-linejoin="round"/>
</svg>
