<svg width="32" height="31" viewBox="0 0 32 31" fill="none" xmlns="http://www.w3.org/2000/svg">
<rect width="32" height="31" rx="8" fill="#D4D4D4"/>
<path d="M11.4748 25.3812V20.3189M9.23175 22.85H13.7151M25.2775 9.31329L24.8943 6.24512M24.8943 6.24512L21.3143 9.82512M24.8943 6.24512L21.7086 5.61865M16.9259 14.5209C16.9259 17.5315 14.4854 19.9721 11.4748 19.9721C8.46423 19.9721 6.02368 17.5315 6.02368 14.5209C6.02368 11.5104 8.46423 9.06982 11.4748 9.06982C14.4854 9.06982 16.9259 11.5104 16.9259 14.5209ZM22.6652 13.9255C22.6652 16.936 20.2246 19.3766 17.2141 19.3766C14.2035 19.3766 11.7629 16.936 11.7629 13.9255C11.7629 10.9149 14.2035 8.47437 17.2141 8.47437C20.2246 8.47437 22.6652 10.9149 22.6652 13.9255Z" stroke="#3C3C3C" stroke-width="2.2375" stroke-linecap="round" stroke-linejoin="round"/>
</svg>
