<svg width="24" height="24" viewBox="0 0 24 24" fill="none" xmlns="http://www.w3.org/2000/svg">
<path d="M2 16.5C2 16.2348 2.10536 15.9804 2.29289 15.7929C2.48043 15.6054 2.73478 15.5 3 15.5H6V12L12 8L18 12V15.5H21C21.2652 15.5 21.5196 15.6054 21.7071 15.7929C21.8946 15.9804 22 16.2348 22 16.5V21C22 21.2652 21.8946 21.5196 21.7071 21.7071C21.5196 21.8946 21.2652 22 21 22H2V16.5Z" stroke="#610CF4" stroke-width="2" stroke-linejoin="round"/>
<path d="M12 3V8" stroke="#610CF4" stroke-width="2" stroke-linecap="round"/>
<path d="M14 22V15.5H10V22M9 22H15M18 6.00001V3.00001C18 3.00001 17.25 4.50001 15 3.00001C12.75 1.50001 12 3.00001 12 3.00001V6.00001C12 6.00001 12.75 4.50001 15 6.00001C17.25 7.50001 18 6.00001 18 6.00001Z" stroke="#610CF4" stroke-width="2" stroke-linecap="round" stroke-linejoin="round"/>
</svg>
