<svg width="24" height="24" viewBox="0 0 24 24" fill="none" xmlns="http://www.w3.org/2000/svg">
<path d="M11.495 2.71391C11.7016 2.29536 12.2984 2.29536 12.505 2.71391L15.179 8.13203C15.261 8.29824 15.4196 8.41344 15.603 8.44009L21.5823 9.30893C22.0441 9.37604 22.2286 9.94367 21.8944 10.2695L17.5677 14.4869C17.435 14.6163 17.3744 14.8026 17.4058 14.9853L18.4271 20.9404C18.506 21.4004 18.0232 21.7513 17.6101 21.5341L12.2621 18.7224C12.098 18.6362 11.902 18.6362 11.738 18.7224L6.38996 21.5341C5.97683 21.7513 5.49398 21.4004 5.57288 20.9404L6.59426 14.9853C6.62559 14.8026 6.56502 14.6163 6.4323 14.4869L2.10567 10.2695C1.77144 9.94367 1.95588 9.37604 2.41777 9.30893L8.39702 8.44009C8.58044 8.41344 8.739 8.29824 8.82103 8.13203L11.495 2.71391Z" fill="#FFD464"/>
</svg>
