<svg width="25" height="24" viewBox="0 0 25 24" fill="none" xmlns="http://www.w3.org/2000/svg">
<path d="M18.2 9.18004C18.566 8.73154 18.491 8.07904 18.035 7.72054C17.579 7.36204 16.9115 7.43554 16.547 7.88254L11.582 13.9725L8.92697 11.9325C8.71009 11.756 8.43284 11.6712 8.15432 11.6961C7.87581 11.7211 7.61804 11.8538 7.43597 12.066C7.34701 12.1701 7.27983 12.291 7.23838 12.4215C7.19693 12.552 7.18206 12.6895 7.19464 12.8258C7.20723 12.9621 7.24702 13.0946 7.31165 13.2153C7.37629 13.336 7.46446 13.4425 7.57097 13.5285L11.051 16.2435C11.2707 16.4223 11.5523 16.5068 11.8341 16.4787C12.116 16.4506 12.3753 16.3122 12.5555 16.0935L18.1955 9.16354L18.2 9.18004Z" fill="#676767"/>
<mask id="path-2-outside-1_1_789" maskUnits="userSpaceOnUse" x="0.5" y="0" width="24" height="24" fill="black">
<rect fill="white" x="0.5" width="24" height="24"/>
<path fill-rule="evenodd" clip-rule="evenodd" d="M10.4583 1.98141C11.1932 1.44195 11.5607 1.17222 11.9584 1.06763C12.3138 0.977457 12.6862 0.977457 13.0416 1.06763C13.4434 1.17222 13.8123 1.44195 14.5417 1.98141L15.4734 2.66537C15.728 2.85253 15.856 2.94611 15.9936 3.01905C16.1166 3.08327 16.2446 3.13649 16.3776 3.17869C16.5276 3.2241 16.6832 3.2475 16.9956 3.29566L18.1379 3.47044C19.0393 3.60806 19.4894 3.67824 19.8444 3.8888C20.161 4.07458 20.4252 4.33881 20.611 4.65533C20.8216 5.01314 20.8904 5.46452 21.0294 6.36179L21.2042 7.50402C21.2524 7.81641 21.2758 7.9733 21.3212 8.1233C21.3625 8.25633 21.4157 8.38386 21.4808 8.50588C21.5551 8.6435 21.6473 8.77148 21.8345 9.02608L22.5185 9.95775C23.058 10.6926 23.3278 11.0601 23.4324 11.4578C23.5225 11.8132 23.5225 12.1855 23.4324 12.5408C23.3291 12.9427 23.058 13.3115 22.5185 14.0409L21.8345 14.9725C21.7036 15.1367 21.5853 15.3106 21.4808 15.4927C21.4155 15.6158 21.3621 15.7449 21.3212 15.8781C21.2758 16.0267 21.2524 16.1822 21.2042 16.4946L21.0294 17.6368C20.8918 18.5382 20.8216 18.9882 20.611 19.3433C20.4252 19.6598 20.161 19.924 19.8444 20.1098C19.4866 20.3204 19.0352 20.3892 18.1379 20.5282L16.9956 20.703C16.7869 20.7266 16.5803 20.7662 16.3776 20.8213C16.2446 20.8617 16.1166 20.9149 15.9936 20.9809C15.856 21.0539 15.728 21.1461 15.4734 21.3346L14.5417 22.0186C13.8068 22.5581 13.4393 22.8278 13.0416 22.9324C12.6862 23.0225 12.3138 23.0225 11.9584 22.9324C11.5566 22.8278 11.1877 22.5581 10.4583 22.0186L9.52658 21.3346C9.36242 21.2037 9.1885 21.0854 9.00635 20.9809C8.88368 20.9157 8.75511 20.8623 8.62237 20.8213C8.4197 20.7662 8.21312 20.7266 8.00443 20.703L6.86213 20.5282C5.96067 20.3906 5.50926 20.3218 5.15556 20.1098C4.84014 19.9222 4.57663 19.6587 4.38898 19.3433C4.17841 18.9855 4.1096 18.5341 3.97059 17.6368L3.79581 16.4946C3.74764 16.1822 3.72424 16.0267 3.67883 15.8767C3.63867 15.7437 3.58518 15.615 3.51918 15.4927C3.41468 15.3106 3.29644 15.1367 3.16548 14.9725L2.48147 14.0409C1.94198 13.306 1.67223 12.9399 1.56763 12.5408C1.47746 12.1855 1.47746 11.8132 1.56763 11.4578C1.67085 11.0559 1.94198 10.6871 2.48147 9.95775L3.16548 9.02608C3.35265 8.77148 3.44624 8.6435 3.51918 8.50588C3.5834 8.38386 3.63662 8.25587 3.67883 8.12193C3.72424 7.97192 3.74764 7.81641 3.79581 7.50402L3.97059 6.36179C4.10822 5.46039 4.17841 5.00901 4.38898 4.65533C4.57477 4.33881 4.83902 4.07733 5.15556 3.8888C5.51339 3.67824 5.9648 3.60943 6.86213 3.47044L8.00443 3.29566C8.31684 3.24887 8.47374 3.2241 8.62237 3.17869C8.75541 3.1374 8.8834 3.08419 9.00635 3.01905C9.14398 2.94611 9.27197 2.85253 9.52658 2.66537L10.4583 1.98141ZM13.7338 3.09061L14.7123 3.80898C14.9202 3.96174 15.1252 4.11311 15.3537 4.23422C15.5555 4.34156 15.7647 4.42826 15.9813 4.49432C16.2288 4.56276 16.4808 4.61381 16.7355 4.64707L17.9356 4.83148C18.9554 4.98837 19.082 5.03103 19.1563 5.07506C19.2728 5.14479 19.3655 5.23745 19.4343 5.35305C19.4784 5.42737 19.5224 5.55398 19.6779 6.57372L19.8623 7.77375C19.8956 8.02839 19.9466 8.28039 20.0151 8.5279C20.0821 8.74625 20.1688 8.95543 20.2752 9.15544C20.3963 9.38388 20.5477 9.58893 20.7005 9.79674L21.4189 10.7752C22.03 11.6064 22.0878 11.7261 22.1098 11.8115C22.1415 11.9407 22.1415 12.0758 22.1098 12.205C22.0878 12.289 22.03 12.4087 21.4189 13.2413L20.7005 14.2198C20.5477 14.4276 20.3963 14.6326 20.2752 14.8611C20.1688 15.0615 20.0817 15.2717 20.0151 15.4886C19.9466 15.7361 19.8956 15.9881 19.8623 16.2428L19.6779 17.4428C19.521 18.4625 19.4784 18.5891 19.4343 18.6635C19.3654 18.7772 19.27 18.8725 19.1563 18.9415C19.082 18.9855 18.9554 19.0295 17.9356 19.185L16.7355 19.3694C16.4808 19.4027 16.2288 19.4538 15.9813 19.5222C15.7643 19.5888 15.5542 19.6759 15.3537 19.7823C15.1252 19.9034 14.9202 20.0548 14.7123 20.2075L13.7338 20.9259C12.9026 21.5369 12.7828 21.5947 12.6975 21.6167C12.5682 21.6485 12.4332 21.6485 12.3039 21.6167C12.2199 21.5947 12.1002 21.5369 11.2676 20.9259L10.289 20.2075C10.0854 20.051 9.87113 19.9089 9.64769 19.7823C9.44722 19.6759 9.23708 19.5888 9.02011 19.5222C8.77259 19.4538 8.52057 19.4027 8.26592 19.3694L7.06582 19.185C6.046 19.0281 5.91939 18.9855 5.84507 18.9415C5.73137 18.8725 5.636 18.7772 5.56706 18.6635C5.52302 18.5891 5.47898 18.4625 5.32346 17.4428L5.13904 16.2428C5.10578 15.9881 5.05473 15.7361 4.98628 15.4886C4.91967 15.2717 4.83257 15.0615 4.72616 14.8611C4.60505 14.6326 4.45366 14.4276 4.3009 14.2198L3.58249 13.2413C2.97142 12.4101 2.91362 12.2904 2.8916 12.205C2.85987 12.0758 2.85987 11.9407 2.8916 11.8115C2.91362 11.7275 2.97142 11.6078 3.58249 10.7752L4.3009 9.79674C4.45366 9.58893 4.60505 9.38388 4.72616 9.15544C4.83259 8.9536 4.9193 8.74442 4.98628 8.5279C5.05473 8.28039 5.10578 8.02839 5.13904 7.77375L5.32346 6.57372C5.48036 5.55398 5.52302 5.42737 5.56706 5.35305C5.636 5.23936 5.73137 5.14399 5.84507 5.07506C5.91939 5.03103 6.046 4.98699 7.06582 4.83148L8.26592 4.64707C8.52057 4.61381 8.77259 4.56276 9.02011 4.49432C9.23848 4.42734 9.44767 4.34064 9.64769 4.23422C9.87615 4.11311 10.0812 3.96174 10.289 3.80898L11.2676 3.09061C12.0988 2.47959 12.2186 2.42179 12.3039 2.39977C12.4332 2.36805 12.5682 2.36805 12.6975 2.39977C12.7814 2.42179 12.9012 2.47959 13.7338 3.09061Z"/>
</mask>
<path fill-rule="evenodd" clip-rule="evenodd" d="M10.4583 1.98141C11.1932 1.44195 11.5607 1.17222 11.9584 1.06763C12.3138 0.977457 12.6862 0.977457 13.0416 1.06763C13.4434 1.17222 13.8123 1.44195 14.5417 1.98141L15.4734 2.66537C15.728 2.85253 15.856 2.94611 15.9936 3.01905C16.1166 3.08327 16.2446 3.13649 16.3776 3.17869C16.5276 3.2241 16.6832 3.2475 16.9956 3.29566L18.1379 3.47044C19.0393 3.60806 19.4894 3.67824 19.8444 3.8888C20.161 4.07458 20.4252 4.33881 20.611 4.65533C20.8216 5.01314 20.8904 5.46452 21.0294 6.36179L21.2042 7.50402C21.2524 7.81641 21.2758 7.9733 21.3212 8.1233C21.3625 8.25633 21.4157 8.38386 21.4808 8.50588C21.5551 8.6435 21.6473 8.77148 21.8345 9.02608L22.5185 9.95775C23.058 10.6926 23.3278 11.0601 23.4324 11.4578C23.5225 11.8132 23.5225 12.1855 23.4324 12.5408C23.3291 12.9427 23.058 13.3115 22.5185 14.0409L21.8345 14.9725C21.7036 15.1367 21.5853 15.3106 21.4808 15.4927C21.4155 15.6158 21.3621 15.7449 21.3212 15.8781C21.2758 16.0267 21.2524 16.1822 21.2042 16.4946L21.0294 17.6368C20.8918 18.5382 20.8216 18.9882 20.611 19.3433C20.4252 19.6598 20.161 19.924 19.8444 20.1098C19.4866 20.3204 19.0352 20.3892 18.1379 20.5282L16.9956 20.703C16.7869 20.7266 16.5803 20.7662 16.3776 20.8213C16.2446 20.8617 16.1166 20.9149 15.9936 20.9809C15.856 21.0539 15.728 21.1461 15.4734 21.3346L14.5417 22.0186C13.8068 22.5581 13.4393 22.8278 13.0416 22.9324C12.6862 23.0225 12.3138 23.0225 11.9584 22.9324C11.5566 22.8278 11.1877 22.5581 10.4583 22.0186L9.52658 21.3346C9.36242 21.2037 9.1885 21.0854 9.00635 20.9809C8.88368 20.9157 8.75511 20.8623 8.62237 20.8213C8.4197 20.7662 8.21312 20.7266 8.00443 20.703L6.86213 20.5282C5.96067 20.3906 5.50926 20.3218 5.15556 20.1098C4.84014 19.9222 4.57663 19.6587 4.38898 19.3433C4.17841 18.9855 4.1096 18.5341 3.97059 17.6368L3.79581 16.4946C3.74764 16.1822 3.72424 16.0267 3.67883 15.8767C3.63867 15.7437 3.58518 15.615 3.51918 15.4927C3.41468 15.3106 3.29644 15.1367 3.16548 14.9725L2.48147 14.0409C1.94198 13.306 1.67223 12.9399 1.56763 12.5408C1.47746 12.1855 1.47746 11.8132 1.56763 11.4578C1.67085 11.0559 1.94198 10.6871 2.48147 9.95775L3.16548 9.02608C3.35265 8.77148 3.44624 8.6435 3.51918 8.50588C3.5834 8.38386 3.63662 8.25587 3.67883 8.12193C3.72424 7.97192 3.74764 7.81641 3.79581 7.50402L3.97059 6.36179C4.10822 5.46039 4.17841 5.00901 4.38898 4.65533C4.57477 4.33881 4.83902 4.07733 5.15556 3.8888C5.51339 3.67824 5.9648 3.60943 6.86213 3.47044L8.00443 3.29566C8.31684 3.24887 8.47374 3.2241 8.62237 3.17869C8.75541 3.1374 8.8834 3.08419 9.00635 3.01905C9.14398 2.94611 9.27197 2.85253 9.52658 2.66537L10.4583 1.98141ZM13.7338 3.09061L14.7123 3.80898C14.9202 3.96174 15.1252 4.11311 15.3537 4.23422C15.5555 4.34156 15.7647 4.42826 15.9813 4.49432C16.2288 4.56276 16.4808 4.61381 16.7355 4.64707L17.9356 4.83148C18.9554 4.98837 19.082 5.03103 19.1563 5.07506C19.2728 5.14479 19.3655 5.23745 19.4343 5.35305C19.4784 5.42737 19.5224 5.55398 19.6779 6.57372L19.8623 7.77375C19.8956 8.02839 19.9466 8.28039 20.0151 8.5279C20.0821 8.74625 20.1688 8.95543 20.2752 9.15544C20.3963 9.38388 20.5477 9.58893 20.7005 9.79674L21.4189 10.7752C22.03 11.6064 22.0878 11.7261 22.1098 11.8115C22.1415 11.9407 22.1415 12.0758 22.1098 12.205C22.0878 12.289 22.03 12.4087 21.4189 13.2413L20.7005 14.2198C20.5477 14.4276 20.3963 14.6326 20.2752 14.8611C20.1688 15.0615 20.0817 15.2717 20.0151 15.4886C19.9466 15.7361 19.8956 15.9881 19.8623 16.2428L19.6779 17.4428C19.521 18.4625 19.4784 18.5891 19.4343 18.6635C19.3654 18.7772 19.27 18.8725 19.1563 18.9415C19.082 18.9855 18.9554 19.0295 17.9356 19.185L16.7355 19.3694C16.4808 19.4027 16.2288 19.4538 15.9813 19.5222C15.7643 19.5888 15.5542 19.6759 15.3537 19.7823C15.1252 19.9034 14.9202 20.0548 14.7123 20.2075L13.7338 20.9259C12.9026 21.5369 12.7828 21.5947 12.6975 21.6167C12.5682 21.6485 12.4332 21.6485 12.3039 21.6167C12.2199 21.5947 12.1002 21.5369 11.2676 20.9259L10.289 20.2075C10.0854 20.051 9.87113 19.9089 9.64769 19.7823C9.44722 19.6759 9.23708 19.5888 9.02011 19.5222C8.77259 19.4538 8.52057 19.4027 8.26592 19.3694L7.06582 19.185C6.046 19.0281 5.91939 18.9855 5.84507 18.9415C5.73137 18.8725 5.636 18.7772 5.56706 18.6635C5.52302 18.5891 5.47898 18.4625 5.32346 17.4428L5.13904 16.2428C5.10578 15.9881 5.05473 15.7361 4.98628 15.4886C4.91967 15.2717 4.83257 15.0615 4.72616 14.8611C4.60505 14.6326 4.45366 14.4276 4.3009 14.2198L3.58249 13.2413C2.97142 12.4101 2.91362 12.2904 2.8916 12.205C2.85987 12.0758 2.85987 11.9407 2.8916 11.8115C2.91362 11.7275 2.97142 11.6078 3.58249 10.7752L4.3009 9.79674C4.45366 9.58893 4.60505 9.38388 4.72616 9.15544C4.83259 8.9536 4.9193 8.74442 4.98628 8.5279C5.05473 8.28039 5.10578 8.02839 5.13904 7.77375L5.32346 6.57372C5.48036 5.55398 5.52302 5.42737 5.56706 5.35305C5.636 5.23936 5.73137 5.14399 5.84507 5.07506C5.91939 5.03103 6.046 4.98699 7.06582 4.83148L8.26592 4.64707C8.52057 4.61381 8.77259 4.56276 9.02011 4.49432C9.23848 4.42734 9.44767 4.34064 9.64769 4.23422C9.87615 4.11311 10.0812 3.96174 10.289 3.80898L11.2676 3.09061C12.0988 2.47959 12.2186 2.42179 12.3039 2.39977C12.4332 2.36805 12.5682 2.36805 12.6975 2.39977C12.7814 2.42179 12.9012 2.47959 13.7338 3.09061Z" fill="#676767"/>
<path fill-rule="evenodd" clip-rule="evenodd" d="M10.4583 1.98141C11.1932 1.44195 11.5607 1.17222 11.9584 1.06763C12.3138 0.977457 12.6862 0.977457 13.0416 1.06763C13.4434 1.17222 13.8123 1.44195 14.5417 1.98141L15.4734 2.66537C15.728 2.85253 15.856 2.94611 15.9936 3.01905C16.1166 3.08327 16.2446 3.13649 16.3776 3.17869C16.5276 3.2241 16.6832 3.2475 16.9956 3.29566L18.1379 3.47044C19.0393 3.60806 19.4894 3.67824 19.8444 3.8888C20.161 4.07458 20.4252 4.33881 20.611 4.65533C20.8216 5.01314 20.8904 5.46452 21.0294 6.36179L21.2042 7.50402C21.2524 7.81641 21.2758 7.9733 21.3212 8.1233C21.3625 8.25633 21.4157 8.38386 21.4808 8.50588C21.5551 8.6435 21.6473 8.77148 21.8345 9.02608L22.5185 9.95775C23.058 10.6926 23.3278 11.0601 23.4324 11.4578C23.5225 11.8132 23.5225 12.1855 23.4324 12.5408C23.3291 12.9427 23.058 13.3115 22.5185 14.0409L21.8345 14.9725C21.7036 15.1367 21.5853 15.3106 21.4808 15.4927C21.4155 15.6158 21.3621 15.7449 21.3212 15.8781C21.2758 16.0267 21.2524 16.1822 21.2042 16.4946L21.0294 17.6368C20.8918 18.5382 20.8216 18.9882 20.611 19.3433C20.4252 19.6598 20.161 19.924 19.8444 20.1098C19.4866 20.3204 19.0352 20.3892 18.1379 20.5282L16.9956 20.703C16.7869 20.7266 16.5803 20.7662 16.3776 20.8213C16.2446 20.8617 16.1166 20.9149 15.9936 20.9809C15.856 21.0539 15.728 21.1461 15.4734 21.3346L14.5417 22.0186C13.8068 22.5581 13.4393 22.8278 13.0416 22.9324C12.6862 23.0225 12.3138 23.0225 11.9584 22.9324C11.5566 22.8278 11.1877 22.5581 10.4583 22.0186L9.52658 21.3346C9.36242 21.2037 9.1885 21.0854 9.00635 20.9809C8.88368 20.9157 8.75511 20.8623 8.62237 20.8213C8.4197 20.7662 8.21312 20.7266 8.00443 20.703L6.86213 20.5282C5.96067 20.3906 5.50926 20.3218 5.15556 20.1098C4.84014 19.9222 4.57663 19.6587 4.38898 19.3433C4.17841 18.9855 4.1096 18.5341 3.97059 17.6368L3.79581 16.4946C3.74764 16.1822 3.72424 16.0267 3.67883 15.8767C3.63867 15.7437 3.58518 15.615 3.51918 15.4927C3.41468 15.3106 3.29644 15.1367 3.16548 14.9725L2.48147 14.0409C1.94198 13.306 1.67223 12.9399 1.56763 12.5408C1.47746 12.1855 1.47746 11.8132 1.56763 11.4578C1.67085 11.0559 1.94198 10.6871 2.48147 9.95775L3.16548 9.02608C3.35265 8.77148 3.44624 8.6435 3.51918 8.50588C3.5834 8.38386 3.63662 8.25587 3.67883 8.12193C3.72424 7.97192 3.74764 7.81641 3.79581 7.50402L3.97059 6.36179C4.10822 5.46039 4.17841 5.00901 4.38898 4.65533C4.57477 4.33881 4.83902 4.07733 5.15556 3.8888C5.51339 3.67824 5.9648 3.60943 6.86213 3.47044L8.00443 3.29566C8.31684 3.24887 8.47374 3.2241 8.62237 3.17869C8.75541 3.1374 8.8834 3.08419 9.00635 3.01905C9.14398 2.94611 9.27197 2.85253 9.52658 2.66537L10.4583 1.98141ZM13.7338 3.09061L14.7123 3.80898C14.9202 3.96174 15.1252 4.11311 15.3537 4.23422C15.5555 4.34156 15.7647 4.42826 15.9813 4.49432C16.2288 4.56276 16.4808 4.61381 16.7355 4.64707L17.9356 4.83148C18.9554 4.98837 19.082 5.03103 19.1563 5.07506C19.2728 5.14479 19.3655 5.23745 19.4343 5.35305C19.4784 5.42737 19.5224 5.55398 19.6779 6.57372L19.8623 7.77375C19.8956 8.02839 19.9466 8.28039 20.0151 8.5279C20.0821 8.74625 20.1688 8.95543 20.2752 9.15544C20.3963 9.38388 20.5477 9.58893 20.7005 9.79674L21.4189 10.7752C22.03 11.6064 22.0878 11.7261 22.1098 11.8115C22.1415 11.9407 22.1415 12.0758 22.1098 12.205C22.0878 12.289 22.03 12.4087 21.4189 13.2413L20.7005 14.2198C20.5477 14.4276 20.3963 14.6326 20.2752 14.8611C20.1688 15.0615 20.0817 15.2717 20.0151 15.4886C19.9466 15.7361 19.8956 15.9881 19.8623 16.2428L19.6779 17.4428C19.521 18.4625 19.4784 18.5891 19.4343 18.6635C19.3654 18.7772 19.27 18.8725 19.1563 18.9415C19.082 18.9855 18.9554 19.0295 17.9356 19.185L16.7355 19.3694C16.4808 19.4027 16.2288 19.4538 15.9813 19.5222C15.7643 19.5888 15.5542 19.6759 15.3537 19.7823C15.1252 19.9034 14.9202 20.0548 14.7123 20.2075L13.7338 20.9259C12.9026 21.5369 12.7828 21.5947 12.6975 21.6167C12.5682 21.6485 12.4332 21.6485 12.3039 21.6167C12.2199 21.5947 12.1002 21.5369 11.2676 20.9259L10.289 20.2075C10.0854 20.051 9.87113 19.9089 9.64769 19.7823C9.44722 19.6759 9.23708 19.5888 9.02011 19.5222C8.77259 19.4538 8.52057 19.4027 8.26592 19.3694L7.06582 19.185C6.046 19.0281 5.91939 18.9855 5.84507 18.9415C5.73137 18.8725 5.636 18.7772 5.56706 18.6635C5.52302 18.5891 5.47898 18.4625 5.32346 17.4428L5.13904 16.2428C5.10578 15.9881 5.05473 15.7361 4.98628 15.4886C4.91967 15.2717 4.83257 15.0615 4.72616 14.8611C4.60505 14.6326 4.45366 14.4276 4.3009 14.2198L3.58249 13.2413C2.97142 12.4101 2.91362 12.2904 2.8916 12.205C2.85987 12.0758 2.85987 11.9407 2.8916 11.8115C2.91362 11.7275 2.97142 11.6078 3.58249 10.7752L4.3009 9.79674C4.45366 9.58893 4.60505 9.38388 4.72616 9.15544C4.83259 8.9536 4.9193 8.74442 4.98628 8.5279C5.05473 8.28039 5.10578 8.02839 5.13904 7.77375L5.32346 6.57372C5.48036 5.55398 5.52302 5.42737 5.56706 5.35305C5.636 5.23936 5.73137 5.14399 5.84507 5.07506C5.91939 5.03103 6.046 4.98699 7.06582 4.83148L8.26592 4.64707C8.52057 4.61381 8.77259 4.56276 9.02011 4.49432C9.23848 4.42734 9.44767 4.34064 9.64769 4.23422C9.87615 4.11311 10.0812 3.96174 10.289 3.80898L11.2676 3.09061C12.0988 2.47959 12.2186 2.42179 12.3039 2.39977C12.4332 2.36805 12.5682 2.36805 12.6975 2.39977C12.7814 2.42179 12.9012 2.47959 13.7338 3.09061Z" stroke="#676767" mask="url(#path-2-outside-1_1_789)"/>
</svg>
