<svg width="24" height="24" viewBox="0 0 24 24" fill="none" xmlns="http://www.w3.org/2000/svg">
<path d="M19.2786 1.90479C20.8678 1.90479 22.2198 2.87151 22.8254 4.23193L22.8313 4.24463L22.8342 4.25244C22.8432 4.27333 22.8521 4.29447 22.8596 4.31592C22.8656 4.33301 22.8727 4.35383 22.8792 4.37158L22.887 4.39307L22.8889 4.39893L22.8899 4.3999L22.8928 4.40869C23.0441 4.83164 23.1262 5.28862 23.1262 5.76221V9.92529C23.126 10.4774 22.6783 10.9253 22.1262 10.9253H18.1194C17.8911 10.9253 17.6803 10.848 17.512 10.7192L16.3889 11.8667L17.4329 12.9321C17.6119 12.7631 17.8537 12.6587 18.1194 12.6587H22.1262C22.6784 12.6587 23.126 13.1066 23.1262 13.6587V21.0952C23.1262 21.6475 22.6785 22.0952 22.1262 22.0952H19.5022C18.9698 22.0952 18.4595 21.9859 17.9954 21.7876C17.5287 21.5885 17.1066 21.2997 16.7532 20.939L14.5168 18.6616C13.751 19.0045 12.9059 19.1929 12.0588 19.1929C11.226 19.1928 10.4309 19.022 9.70825 18.7134L8.63501 19.812L7.54712 20.9272C7.54294 20.9315 7.53868 20.9357 7.53442 20.9399C7.18036 21.2998 6.76061 21.587 6.29614 21.7866C5.82874 21.9883 5.31664 22.0952 4.78638 22.0952C3.19745 22.0952 1.84428 21.1298 1.23853 19.7661C1.2009 19.6813 1.17528 19.5919 1.16235 19.5005C1.13863 19.4152 1.12625 19.3248 1.12622 19.2319V2.94189C1.12622 2.38961 1.57394 1.94189 2.12622 1.94189H5.02661C5.55857 1.94189 6.06989 2.05107 6.53442 2.24951L6.53735 2.25049C6.99943 2.44962 7.4208 2.73676 7.77563 3.09912L7.77661 3.1001L8.87231 4.22119L8.87524 4.22412L11.8655 7.26611C11.9497 7.2529 12.0375 7.24658 12.1272 7.24658C12.2248 7.24661 12.3205 7.25463 12.4133 7.271L16.5295 3.06299C16.8819 2.70315 17.3047 2.41246 17.7737 2.21338C18.2355 2.0164 18.7443 1.90483 19.2786 1.90479ZM3.12622 19.0698C3.12676 19.0731 3.12767 19.0763 3.12817 19.0796C3.45468 19.6947 4.0821 20.0952 4.78638 20.0952C5.04581 20.0952 5.28825 20.0429 5.50415 19.9497L5.5061 19.9487C5.72679 19.8539 5.92463 19.7196 6.09302 19.5522C6.10635 19.5379 6.12118 19.5234 6.13696 19.5083L7.20435 18.4155L8.78931 16.7915C9.11229 16.4606 9.61972 16.3945 10.0168 16.6313C10.6148 16.988 11.3122 17.1928 12.0588 17.1929C12.8004 17.1929 13.5544 16.9716 14.179 16.5815C14.5766 16.3332 15.0936 16.3946 15.4221 16.729L18.1819 19.5386C18.352 19.7123 18.5562 19.8517 18.7815 19.9478C19.0034 20.0425 19.2464 20.0952 19.5022 20.0952H21.1262V14.6587H19.1184V15.0601C19.1184 15.4662 18.8733 15.8322 18.4973 15.9858C18.1212 16.1395 17.689 16.0503 17.4045 15.7603L14.5022 12.7993L14.2747 12.5679C14.2475 12.5402 14.2227 12.5108 14.1995 12.481L13.6946 11.9614C13.6757 11.942 13.6572 11.9218 13.6399 11.9009C13.6358 11.8959 13.6304 11.8891 13.6243 11.8813C13.507 11.7345 13.0218 11.1266 12.1282 11.1265C11.7302 11.1265 11.4012 11.2782 11.1536 11.4517C11.031 11.5376 10.9367 11.6231 10.8762 11.6841C10.8465 11.7141 10.8254 11.7372 10.8147 11.7495L10.8108 11.7534L10.8098 11.7554L10.8079 11.7583C10.7869 11.7847 10.764 11.8103 10.7405 11.8345L10.0432 12.5522C10.0285 12.5695 10.0144 12.5875 9.99829 12.604L6.8479 15.8276C6.56379 16.1184 6.13158 16.2085 5.75513 16.0552C5.37863 15.9018 5.13208 15.535 5.13208 15.1284V8.70166C5.13208 8.29579 5.37763 7.92975 5.75317 7.77588C6.12883 7.62212 6.56031 7.71116 6.84497 8.00049L9.27563 10.4722H9.27661C9.28473 10.4625 9.29388 10.4516 9.30396 10.4399C9.34113 10.397 9.39131 10.3405 9.45532 10.2759C9.58275 10.1473 9.76696 9.97989 10.0051 9.81299C10.2803 9.62013 10.6404 9.42177 11.0745 9.2876C11.0232 9.25212 10.9743 9.21261 10.9299 9.16748L7.4436 5.62158L6.34692 4.49756C6.17842 4.32563 5.97463 4.1866 5.74731 4.08838C5.52621 3.99414 5.28225 3.94189 5.02661 3.94189H3.12622V19.0698ZM13.9915 15.8765C13.4155 16.1927 12.7596 16.3676 12.0793 16.3677C11.4255 16.3677 10.809 16.2089 10.2639 15.9292L12.1477 14.0005L13.9915 15.8765ZM7.13208 12.6743L7.88208 11.9077L7.13208 11.145V12.6743ZM19.2786 3.90479C19.0235 3.90483 18.7803 3.9578 18.5569 4.05322L18.5549 4.0542C18.3338 4.14809 18.1296 4.28751 17.9583 4.4624L13.3411 9.18311C13.3036 9.22139 13.2624 9.25521 13.22 9.28662C13.6881 9.42579 14.0749 9.63749 14.3752 9.854C14.6279 10.0362 14.8231 10.2212 14.9612 10.3687C14.9767 10.3853 14.9905 10.4032 15.0051 10.4194L17.2053 8.17334L17.4036 7.97021C17.6878 7.67964 18.12 7.59018 18.4963 7.74365C18.8727 7.89713 19.1184 8.26296 19.1184 8.66943V8.92529H21.1262V5.76221C21.1262 5.52233 21.0843 5.29422 21.01 5.08545L21.0081 5.07959L20.9983 5.05322C20.9947 5.0434 20.991 5.03154 20.9866 5.01904C20.6767 4.34966 20.0195 3.90479 19.2786 3.90479Z" fill="#676767"/>
</svg>
