<svg width="24" height="24" viewBox="0 0 24 24" fill="none" xmlns="http://www.w3.org/2000/svg">
<g clip-path="url(#clip0_3722_106)">
<path d="M17.7 9.18004C18.066 8.73154 17.991 8.07904 17.535 7.72054C17.079 7.36204 16.4115 7.43554 16.047 7.88254L11.082 13.9725L8.42697 11.9325C8.21009 11.756 7.93284 11.6712 7.65432 11.6961C7.37581 11.7211 7.11804 11.8538 6.93597 12.066C6.84701 12.1701 6.77983 12.291 6.73838 12.4215C6.69693 12.552 6.68206 12.6895 6.69464 12.8258C6.70723 12.9621 6.74702 13.0946 6.81165 13.2153C6.87629 13.336 6.96446 13.4425 7.07097 13.5285L10.551 16.2435C10.7707 16.4223 11.0523 16.5068 11.3341 16.4787C11.616 16.4506 11.8753 16.3122 12.0555 16.0935L17.6955 9.16354L17.7 9.18004Z" fill="#646363"/>
<mask id="path-2-outside-1_3722_106" maskUnits="userSpaceOnUse" x="0" y="0" width="24" height="24" fill="black">
<rect fill="white" width="24" height="24"/>
<path fill-rule="evenodd" clip-rule="evenodd" d="M9.95831 1.98141C10.6932 1.44195 11.0607 1.17222 11.4584 1.06763C11.8138 0.977457 12.1862 0.977457 12.5416 1.06763C12.9434 1.17222 13.3123 1.44195 14.0417 1.98141L14.9734 2.66537C15.228 2.85253 15.356 2.94611 15.4936 3.01905C15.6166 3.08327 15.7446 3.13649 15.8776 3.17869C16.0276 3.2241 16.1832 3.2475 16.4956 3.29566L17.6379 3.47044C18.5393 3.60806 18.9894 3.67824 19.3444 3.8888C19.661 4.07458 19.9252 4.33881 20.111 4.65533C20.3216 5.01314 20.3904 5.46452 20.5294 6.36179L20.7042 7.50402C20.7524 7.81641 20.7758 7.9733 20.8212 8.1233C20.8625 8.25633 20.9157 8.38386 20.9808 8.50588C21.0551 8.6435 21.1473 8.77148 21.3345 9.02608L22.0185 9.95775C22.558 10.6926 22.8278 11.0601 22.9324 11.4578C23.0225 11.8132 23.0225 12.1855 22.9324 12.5408C22.8291 12.9427 22.558 13.3115 22.0185 14.0409L21.3345 14.9725C21.2036 15.1367 21.0853 15.3106 20.9808 15.4927C20.9155 15.6158 20.8621 15.7449 20.8212 15.8781C20.7758 16.0267 20.7524 16.1822 20.7042 16.4946L20.5294 17.6368C20.3918 18.5382 20.3216 18.9882 20.111 19.3433C19.9252 19.6598 19.661 19.924 19.3444 20.1098C18.9866 20.3204 18.5352 20.3892 17.6379 20.5282L16.4956 20.703C16.2869 20.7266 16.0803 20.7662 15.8776 20.8213C15.7446 20.8617 15.6166 20.9149 15.4936 20.9809C15.356 21.0539 15.228 21.1461 14.9734 21.3346L14.0417 22.0186C13.3068 22.5581 12.9393 22.8278 12.5416 22.9324C12.1862 23.0225 11.8138 23.0225 11.4584 22.9324C11.0566 22.8278 10.6877 22.5581 9.95831 22.0186L9.02658 21.3346C8.86242 21.2037 8.6885 21.0854 8.50635 20.9809C8.38368 20.9157 8.25511 20.8623 8.12237 20.8213C7.9197 20.7662 7.71312 20.7266 7.50443 20.703L6.36213 20.5282C5.46067 20.3906 5.00926 20.3218 4.65556 20.1098C4.34014 19.9222 4.07663 19.6587 3.88898 19.3433C3.67841 18.9855 3.6096 18.5341 3.47059 17.6368L3.29581 16.4946C3.24764 16.1822 3.22424 16.0267 3.17883 15.8767C3.13867 15.7437 3.08518 15.615 3.01918 15.4927C2.91468 15.3106 2.79644 15.1367 2.66548 14.9725L1.98147 14.0409C1.44198 13.306 1.17223 12.9399 1.06763 12.5408C0.977455 12.1855 0.977455 11.8132 1.06763 11.4578C1.17085 11.0559 1.44198 10.6871 1.98147 9.95775L2.66548 9.02608C2.85265 8.77148 2.94624 8.6435 3.01918 8.50588C3.0834 8.38386 3.13662 8.25587 3.17883 8.12193C3.22424 7.97192 3.24764 7.81641 3.29581 7.50402L3.47059 6.36179C3.60822 5.46039 3.67841 5.00901 3.88898 4.65533C4.07477 4.33881 4.33902 4.07733 4.65556 3.8888C5.01339 3.67824 5.4648 3.60943 6.36213 3.47044L7.50443 3.29566C7.81684 3.24887 7.97374 3.2241 8.12237 3.17869C8.25541 3.1374 8.3834 3.08419 8.50635 3.01905C8.64398 2.94611 8.77197 2.85253 9.02658 2.66537L9.95831 1.98141ZM13.2338 3.09061L14.2123 3.80898C14.4202 3.96174 14.6252 4.11311 14.8537 4.23422C15.0555 4.34156 15.2647 4.42826 15.4813 4.49432C15.7288 4.56276 15.9808 4.61381 16.2355 4.64707L17.4356 4.83148C18.4554 4.98837 18.582 5.03103 18.6563 5.07506C18.7728 5.14479 18.8655 5.23745 18.9343 5.35305C18.9784 5.42737 19.0224 5.55398 19.1779 6.57372L19.3623 7.77375C19.3956 8.02839 19.4466 8.28039 19.5151 8.5279C19.5821 8.74625 19.6688 8.95543 19.7752 9.15544C19.8963 9.38388 20.0477 9.58893 20.2005 9.79674L20.9189 10.7752C21.53 11.6064 21.5878 11.7261 21.6098 11.8115C21.6415 11.9407 21.6415 12.0758 21.6098 12.205C21.5878 12.289 21.53 12.4087 20.9189 13.2413L20.2005 14.2198C20.0477 14.4276 19.8963 14.6326 19.7752 14.8611C19.6688 15.0615 19.5817 15.2717 19.5151 15.4886C19.4466 15.7361 19.3956 15.9881 19.3623 16.2428L19.1779 17.4428C19.021 18.4625 18.9784 18.5891 18.9343 18.6635C18.8654 18.7772 18.77 18.8725 18.6563 18.9415C18.582 18.9855 18.4554 19.0295 17.4356 19.185L16.2355 19.3694C15.9808 19.4027 15.7288 19.4538 15.4813 19.5222C15.2643 19.5888 15.0542 19.6759 14.8537 19.7823C14.6252 19.9034 14.4202 20.0548 14.2123 20.2075L13.2338 20.9259C12.4026 21.5369 12.2828 21.5947 12.1975 21.6167C12.0682 21.6485 11.9332 21.6485 11.8039 21.6167C11.7199 21.5947 11.6002 21.5369 10.7676 20.9259L9.78903 20.2075C9.58543 20.051 9.37113 19.9089 9.14769 19.7823C8.94722 19.6759 8.73708 19.5888 8.52011 19.5222C8.27259 19.4538 8.02057 19.4027 7.76592 19.3694L6.56582 19.185C5.546 19.0281 5.41939 18.9855 5.34507 18.9415C5.23137 18.8725 5.136 18.7772 5.06706 18.6635C5.02302 18.5891 4.97898 18.4625 4.82346 17.4428L4.63904 16.2428C4.60578 15.9881 4.55473 15.7361 4.48628 15.4886C4.41967 15.2717 4.33257 15.0615 4.22616 14.8611C4.10505 14.6326 3.95366 14.4276 3.8009 14.2198L3.08249 13.2413C2.47142 12.4101 2.41362 12.2904 2.3916 12.205C2.35987 12.0758 2.35987 11.9407 2.3916 11.8115C2.41362 11.7275 2.47142 11.6078 3.08249 10.7752L3.8009 9.79674C3.95366 9.58893 4.10505 9.38388 4.22616 9.15544C4.33259 8.9536 4.4193 8.74442 4.48628 8.5279C4.55473 8.28039 4.60578 8.02839 4.63904 7.77375L4.82346 6.57372C4.98036 5.55398 5.02302 5.42737 5.06706 5.35305C5.136 5.23936 5.23137 5.14399 5.34507 5.07506C5.41939 5.03103 5.546 4.98699 6.56582 4.83148L7.76592 4.64707C8.02057 4.61381 8.27259 4.56276 8.52011 4.49432C8.73848 4.42734 8.94767 4.34064 9.14769 4.23422C9.37615 4.11311 9.58121 3.96174 9.78903 3.80898L10.7676 3.09061C11.5988 2.47959 11.7186 2.42179 11.8039 2.39977C11.9332 2.36805 12.0682 2.36805 12.1975 2.39977C12.2814 2.42179 12.4012 2.47959 13.2338 3.09061Z"/>
</mask>
<path fill-rule="evenodd" clip-rule="evenodd" d="M9.95831 1.98141C10.6932 1.44195 11.0607 1.17222 11.4584 1.06763C11.8138 0.977457 12.1862 0.977457 12.5416 1.06763C12.9434 1.17222 13.3123 1.44195 14.0417 1.98141L14.9734 2.66537C15.228 2.85253 15.356 2.94611 15.4936 3.01905C15.6166 3.08327 15.7446 3.13649 15.8776 3.17869C16.0276 3.2241 16.1832 3.2475 16.4956 3.29566L17.6379 3.47044C18.5393 3.60806 18.9894 3.67824 19.3444 3.8888C19.661 4.07458 19.9252 4.33881 20.111 4.65533C20.3216 5.01314 20.3904 5.46452 20.5294 6.36179L20.7042 7.50402C20.7524 7.81641 20.7758 7.9733 20.8212 8.1233C20.8625 8.25633 20.9157 8.38386 20.9808 8.50588C21.0551 8.6435 21.1473 8.77148 21.3345 9.02608L22.0185 9.95775C22.558 10.6926 22.8278 11.0601 22.9324 11.4578C23.0225 11.8132 23.0225 12.1855 22.9324 12.5408C22.8291 12.9427 22.558 13.3115 22.0185 14.0409L21.3345 14.9725C21.2036 15.1367 21.0853 15.3106 20.9808 15.4927C20.9155 15.6158 20.8621 15.7449 20.8212 15.8781C20.7758 16.0267 20.7524 16.1822 20.7042 16.4946L20.5294 17.6368C20.3918 18.5382 20.3216 18.9882 20.111 19.3433C19.9252 19.6598 19.661 19.924 19.3444 20.1098C18.9866 20.3204 18.5352 20.3892 17.6379 20.5282L16.4956 20.703C16.2869 20.7266 16.0803 20.7662 15.8776 20.8213C15.7446 20.8617 15.6166 20.9149 15.4936 20.9809C15.356 21.0539 15.228 21.1461 14.9734 21.3346L14.0417 22.0186C13.3068 22.5581 12.9393 22.8278 12.5416 22.9324C12.1862 23.0225 11.8138 23.0225 11.4584 22.9324C11.0566 22.8278 10.6877 22.5581 9.95831 22.0186L9.02658 21.3346C8.86242 21.2037 8.6885 21.0854 8.50635 20.9809C8.38368 20.9157 8.25511 20.8623 8.12237 20.8213C7.9197 20.7662 7.71312 20.7266 7.50443 20.703L6.36213 20.5282C5.46067 20.3906 5.00926 20.3218 4.65556 20.1098C4.34014 19.9222 4.07663 19.6587 3.88898 19.3433C3.67841 18.9855 3.6096 18.5341 3.47059 17.6368L3.29581 16.4946C3.24764 16.1822 3.22424 16.0267 3.17883 15.8767C3.13867 15.7437 3.08518 15.615 3.01918 15.4927C2.91468 15.3106 2.79644 15.1367 2.66548 14.9725L1.98147 14.0409C1.44198 13.306 1.17223 12.9399 1.06763 12.5408C0.977455 12.1855 0.977455 11.8132 1.06763 11.4578C1.17085 11.0559 1.44198 10.6871 1.98147 9.95775L2.66548 9.02608C2.85265 8.77148 2.94624 8.6435 3.01918 8.50588C3.0834 8.38386 3.13662 8.25587 3.17883 8.12193C3.22424 7.97192 3.24764 7.81641 3.29581 7.50402L3.47059 6.36179C3.60822 5.46039 3.67841 5.00901 3.88898 4.65533C4.07477 4.33881 4.33902 4.07733 4.65556 3.8888C5.01339 3.67824 5.4648 3.60943 6.36213 3.47044L7.50443 3.29566C7.81684 3.24887 7.97374 3.2241 8.12237 3.17869C8.25541 3.1374 8.3834 3.08419 8.50635 3.01905C8.64398 2.94611 8.77197 2.85253 9.02658 2.66537L9.95831 1.98141ZM13.2338 3.09061L14.2123 3.80898C14.4202 3.96174 14.6252 4.11311 14.8537 4.23422C15.0555 4.34156 15.2647 4.42826 15.4813 4.49432C15.7288 4.56276 15.9808 4.61381 16.2355 4.64707L17.4356 4.83148C18.4554 4.98837 18.582 5.03103 18.6563 5.07506C18.7728 5.14479 18.8655 5.23745 18.9343 5.35305C18.9784 5.42737 19.0224 5.55398 19.1779 6.57372L19.3623 7.77375C19.3956 8.02839 19.4466 8.28039 19.5151 8.5279C19.5821 8.74625 19.6688 8.95543 19.7752 9.15544C19.8963 9.38388 20.0477 9.58893 20.2005 9.79674L20.9189 10.7752C21.53 11.6064 21.5878 11.7261 21.6098 11.8115C21.6415 11.9407 21.6415 12.0758 21.6098 12.205C21.5878 12.289 21.53 12.4087 20.9189 13.2413L20.2005 14.2198C20.0477 14.4276 19.8963 14.6326 19.7752 14.8611C19.6688 15.0615 19.5817 15.2717 19.5151 15.4886C19.4466 15.7361 19.3956 15.9881 19.3623 16.2428L19.1779 17.4428C19.021 18.4625 18.9784 18.5891 18.9343 18.6635C18.8654 18.7772 18.77 18.8725 18.6563 18.9415C18.582 18.9855 18.4554 19.0295 17.4356 19.185L16.2355 19.3694C15.9808 19.4027 15.7288 19.4538 15.4813 19.5222C15.2643 19.5888 15.0542 19.6759 14.8537 19.7823C14.6252 19.9034 14.4202 20.0548 14.2123 20.2075L13.2338 20.9259C12.4026 21.5369 12.2828 21.5947 12.1975 21.6167C12.0682 21.6485 11.9332 21.6485 11.8039 21.6167C11.7199 21.5947 11.6002 21.5369 10.7676 20.9259L9.78903 20.2075C9.58543 20.051 9.37113 19.9089 9.14769 19.7823C8.94722 19.6759 8.73708 19.5888 8.52011 19.5222C8.27259 19.4538 8.02057 19.4027 7.76592 19.3694L6.56582 19.185C5.546 19.0281 5.41939 18.9855 5.34507 18.9415C5.23137 18.8725 5.136 18.7772 5.06706 18.6635C5.02302 18.5891 4.97898 18.4625 4.82346 17.4428L4.63904 16.2428C4.60578 15.9881 4.55473 15.7361 4.48628 15.4886C4.41967 15.2717 4.33257 15.0615 4.22616 14.8611C4.10505 14.6326 3.95366 14.4276 3.8009 14.2198L3.08249 13.2413C2.47142 12.4101 2.41362 12.2904 2.3916 12.205C2.35987 12.0758 2.35987 11.9407 2.3916 11.8115C2.41362 11.7275 2.47142 11.6078 3.08249 10.7752L3.8009 9.79674C3.95366 9.58893 4.10505 9.38388 4.22616 9.15544C4.33259 8.9536 4.4193 8.74442 4.48628 8.5279C4.55473 8.28039 4.60578 8.02839 4.63904 7.77375L4.82346 6.57372C4.98036 5.55398 5.02302 5.42737 5.06706 5.35305C5.136 5.23936 5.23137 5.14399 5.34507 5.07506C5.41939 5.03103 5.546 4.98699 6.56582 4.83148L7.76592 4.64707C8.02057 4.61381 8.27259 4.56276 8.52011 4.49432C8.73848 4.42734 8.94767 4.34064 9.14769 4.23422C9.37615 4.11311 9.58121 3.96174 9.78903 3.80898L10.7676 3.09061C11.5988 2.47959 11.7186 2.42179 11.8039 2.39977C11.9332 2.36805 12.0682 2.36805 12.1975 2.39977C12.2814 2.42179 12.4012 2.47959 13.2338 3.09061Z" fill="#646363"/>
<path fill-rule="evenodd" clip-rule="evenodd" d="M9.95831 1.98141C10.6932 1.44195 11.0607 1.17222 11.4584 1.06763C11.8138 0.977457 12.1862 0.977457 12.5416 1.06763C12.9434 1.17222 13.3123 1.44195 14.0417 1.98141L14.9734 2.66537C15.228 2.85253 15.356 2.94611 15.4936 3.01905C15.6166 3.08327 15.7446 3.13649 15.8776 3.17869C16.0276 3.2241 16.1832 3.2475 16.4956 3.29566L17.6379 3.47044C18.5393 3.60806 18.9894 3.67824 19.3444 3.8888C19.661 4.07458 19.9252 4.33881 20.111 4.65533C20.3216 5.01314 20.3904 5.46452 20.5294 6.36179L20.7042 7.50402C20.7524 7.81641 20.7758 7.9733 20.8212 8.1233C20.8625 8.25633 20.9157 8.38386 20.9808 8.50588C21.0551 8.6435 21.1473 8.77148 21.3345 9.02608L22.0185 9.95775C22.558 10.6926 22.8278 11.0601 22.9324 11.4578C23.0225 11.8132 23.0225 12.1855 22.9324 12.5408C22.8291 12.9427 22.558 13.3115 22.0185 14.0409L21.3345 14.9725C21.2036 15.1367 21.0853 15.3106 20.9808 15.4927C20.9155 15.6158 20.8621 15.7449 20.8212 15.8781C20.7758 16.0267 20.7524 16.1822 20.7042 16.4946L20.5294 17.6368C20.3918 18.5382 20.3216 18.9882 20.111 19.3433C19.9252 19.6598 19.661 19.924 19.3444 20.1098C18.9866 20.3204 18.5352 20.3892 17.6379 20.5282L16.4956 20.703C16.2869 20.7266 16.0803 20.7662 15.8776 20.8213C15.7446 20.8617 15.6166 20.9149 15.4936 20.9809C15.356 21.0539 15.228 21.1461 14.9734 21.3346L14.0417 22.0186C13.3068 22.5581 12.9393 22.8278 12.5416 22.9324C12.1862 23.0225 11.8138 23.0225 11.4584 22.9324C11.0566 22.8278 10.6877 22.5581 9.95831 22.0186L9.02658 21.3346C8.86242 21.2037 8.6885 21.0854 8.50635 20.9809C8.38368 20.9157 8.25511 20.8623 8.12237 20.8213C7.9197 20.7662 7.71312 20.7266 7.50443 20.703L6.36213 20.5282C5.46067 20.3906 5.00926 20.3218 4.65556 20.1098C4.34014 19.9222 4.07663 19.6587 3.88898 19.3433C3.67841 18.9855 3.6096 18.5341 3.47059 17.6368L3.29581 16.4946C3.24764 16.1822 3.22424 16.0267 3.17883 15.8767C3.13867 15.7437 3.08518 15.615 3.01918 15.4927C2.91468 15.3106 2.79644 15.1367 2.66548 14.9725L1.98147 14.0409C1.44198 13.306 1.17223 12.9399 1.06763 12.5408C0.977455 12.1855 0.977455 11.8132 1.06763 11.4578C1.17085 11.0559 1.44198 10.6871 1.98147 9.95775L2.66548 9.02608C2.85265 8.77148 2.94624 8.6435 3.01918 8.50588C3.0834 8.38386 3.13662 8.25587 3.17883 8.12193C3.22424 7.97192 3.24764 7.81641 3.29581 7.50402L3.47059 6.36179C3.60822 5.46039 3.67841 5.00901 3.88898 4.65533C4.07477 4.33881 4.33902 4.07733 4.65556 3.8888C5.01339 3.67824 5.4648 3.60943 6.36213 3.47044L7.50443 3.29566C7.81684 3.24887 7.97374 3.2241 8.12237 3.17869C8.25541 3.1374 8.3834 3.08419 8.50635 3.01905C8.64398 2.94611 8.77197 2.85253 9.02658 2.66537L9.95831 1.98141ZM13.2338 3.09061L14.2123 3.80898C14.4202 3.96174 14.6252 4.11311 14.8537 4.23422C15.0555 4.34156 15.2647 4.42826 15.4813 4.49432C15.7288 4.56276 15.9808 4.61381 16.2355 4.64707L17.4356 4.83148C18.4554 4.98837 18.582 5.03103 18.6563 5.07506C18.7728 5.14479 18.8655 5.23745 18.9343 5.35305C18.9784 5.42737 19.0224 5.55398 19.1779 6.57372L19.3623 7.77375C19.3956 8.02839 19.4466 8.28039 19.5151 8.5279C19.5821 8.74625 19.6688 8.95543 19.7752 9.15544C19.8963 9.38388 20.0477 9.58893 20.2005 9.79674L20.9189 10.7752C21.53 11.6064 21.5878 11.7261 21.6098 11.8115C21.6415 11.9407 21.6415 12.0758 21.6098 12.205C21.5878 12.289 21.53 12.4087 20.9189 13.2413L20.2005 14.2198C20.0477 14.4276 19.8963 14.6326 19.7752 14.8611C19.6688 15.0615 19.5817 15.2717 19.5151 15.4886C19.4466 15.7361 19.3956 15.9881 19.3623 16.2428L19.1779 17.4428C19.021 18.4625 18.9784 18.5891 18.9343 18.6635C18.8654 18.7772 18.77 18.8725 18.6563 18.9415C18.582 18.9855 18.4554 19.0295 17.4356 19.185L16.2355 19.3694C15.9808 19.4027 15.7288 19.4538 15.4813 19.5222C15.2643 19.5888 15.0542 19.6759 14.8537 19.7823C14.6252 19.9034 14.4202 20.0548 14.2123 20.2075L13.2338 20.9259C12.4026 21.5369 12.2828 21.5947 12.1975 21.6167C12.0682 21.6485 11.9332 21.6485 11.8039 21.6167C11.7199 21.5947 11.6002 21.5369 10.7676 20.9259L9.78903 20.2075C9.58543 20.051 9.37113 19.9089 9.14769 19.7823C8.94722 19.6759 8.73708 19.5888 8.52011 19.5222C8.27259 19.4538 8.02057 19.4027 7.76592 19.3694L6.56582 19.185C5.546 19.0281 5.41939 18.9855 5.34507 18.9415C5.23137 18.8725 5.136 18.7772 5.06706 18.6635C5.02302 18.5891 4.97898 18.4625 4.82346 17.4428L4.63904 16.2428C4.60578 15.9881 4.55473 15.7361 4.48628 15.4886C4.41967 15.2717 4.33257 15.0615 4.22616 14.8611C4.10505 14.6326 3.95366 14.4276 3.8009 14.2198L3.08249 13.2413C2.47142 12.4101 2.41362 12.2904 2.3916 12.205C2.35987 12.0758 2.35987 11.9407 2.3916 11.8115C2.41362 11.7275 2.47142 11.6078 3.08249 10.7752L3.8009 9.79674C3.95366 9.58893 4.10505 9.38388 4.22616 9.15544C4.33259 8.9536 4.4193 8.74442 4.48628 8.5279C4.55473 8.28039 4.60578 8.02839 4.63904 7.77375L4.82346 6.57372C4.98036 5.55398 5.02302 5.42737 5.06706 5.35305C5.136 5.23936 5.23137 5.14399 5.34507 5.07506C5.41939 5.03103 5.546 4.98699 6.56582 4.83148L7.76592 4.64707C8.02057 4.61381 8.27259 4.56276 8.52011 4.49432C8.73848 4.42734 8.94767 4.34064 9.14769 4.23422C9.37615 4.11311 9.58121 3.96174 9.78903 3.80898L10.7676 3.09061C11.5988 2.47959 11.7186 2.42179 11.8039 2.39977C11.9332 2.36805 12.0682 2.36805 12.1975 2.39977C12.2814 2.42179 12.4012 2.47959 13.2338 3.09061Z" stroke="#646363" mask="url(#path-2-outside-1_3722_106)"/>
</g>
<defs>
<clipPath id="clip0_3722_106">
<rect width="24" height="24" fill="white"/>
</clipPath>
</defs>
</svg>
