<svg id="graduetion" width="24" height="24" viewBox="0 0 24 24" fill="none" xmlns="http://www.w3.org/2000/svg">
<path d="M18.4474 18.2539L17.9389 17.3928L18.4474 18.2539ZM18.9389 17.3928H17.9389H18.9389ZM10.9656 21.4035L10.4291 22.2474L10.9656 21.4035ZM13.0554 21.4378L13.5639 22.2989L13.0554 21.4378ZM1.90407 8.13679L1.39214 7.27776L1.90407 8.13679ZM1.90407 8.99582L1.39214 9.85484L1.90407 8.99582ZM12.5119 14.7073L13.0238 15.5663L12.5119 14.7073ZM11.4881 14.7073L12 13.8483L11.4881 14.7073ZM22.0959 8.13679L22.6078 7.27776L22.0959 8.13679ZM22.0959 8.99582L21.584 8.13679L22.0959 8.99582ZM6.01756 18.2583L6.55401 17.4143L6.01756 18.2583ZM12.5119 2.42532L12 3.28435L12.5119 2.42532ZM11.4881 2.42532L12 3.28435L11.4881 2.42532ZM23.2 8.54966C23.2 7.99737 22.7523 7.54966 22.2 7.54966C21.6477 7.54966 21.2 7.99737 21.2 8.54966H23.2ZM21.2 13.9497C21.2 14.5019 21.6477 14.9497 22.2 14.9497C22.7523 14.9497 23.2 14.5019 23.2 13.9497H21.2ZM12 3.28435L21.584 8.99582L22.6078 7.27776L13.0238 1.56629L12 3.28435ZM21.584 8.13679L12 13.8483L13.0238 15.5663L22.6078 9.85484L21.584 8.13679ZM2.416 8.99582L12 3.28435L10.9761 1.56629L1.39214 7.27776L2.416 8.99582ZM12 13.8483L6.06593 10.3119L5.04208 12.03L10.9761 15.5663L12 13.8483ZM6.06594 10.3119L2.416 8.13679L1.39214 9.85484L5.04208 12.03L6.06594 10.3119ZM4.55401 11.171V17.4143H6.55401V11.171H4.55401ZM5.48111 19.1022L10.4291 22.2474L11.502 20.5596L6.55401 17.4143L5.48111 19.1022ZM13.5639 22.2989L18.9559 19.1149L17.9389 17.3928L12.5469 20.5767L13.5639 22.2989ZM19.9389 17.3928L19.9389 11.171H17.9389L17.9389 17.3928H19.9389ZM18.9559 19.1149C19.5651 18.7552 19.9389 18.1003 19.9389 17.3928H17.9389L18.9559 19.1149ZM10.4291 22.2474C11.3812 22.8527 12.5924 22.8725 13.5639 22.2989L12.5469 20.5767C12.2231 20.7679 11.8194 20.7613 11.502 20.5596L10.4291 22.2474ZM1.39214 7.27776C0.415995 7.85948 0.416001 9.27312 1.39214 9.85484L2.416 8.13679C2.74138 8.33069 2.74138 8.80191 2.416 8.99582L1.39214 7.27776ZM12 13.8483L12 13.8483L10.9761 15.5663C11.6069 15.9422 12.393 15.9422 13.0238 15.5663L12 13.8483ZM21.584 8.99582C21.2586 8.80191 21.2586 8.3307 21.584 8.13679L22.6078 9.85484C23.584 9.27312 23.584 7.85948 22.6078 7.27776L21.584 8.99582ZM4.55401 17.4143C4.55401 18.0985 4.90372 18.7352 5.48111 19.1022L6.55401 17.4143V17.4143H4.55401ZM13.0238 1.56629C12.393 1.19037 11.6069 1.19037 10.9761 1.56629L12 3.28435L12 3.28435L13.0238 1.56629ZM21.2 8.54966V13.9497H23.2V8.54966H21.2Z" fill="#646363"/>
</svg>
