<svg width="24" height="24" viewBox="0 0 24 24" fill="none" xmlns="http://www.w3.org/2000/svg">
<path d="M2.40002 21.6L2.40043 17.9996C2.40065 16.0115 4.01236 14.4 6.00043 14.4H12.6M16.8 15.1714L19.2 12.6M19.2 12.6L21.6 15.1714M19.2 12.6V19.2M17.4 2.4C18.8563 3.21628 19.8 4.52488 19.8 6C19.8 7.47512 18.8563 8.78372 17.4 9.6M14.4 6C14.4 7.98823 12.7882 9.6 10.8 9.6C8.8118 9.6 7.20002 7.98823 7.20002 6C7.20002 4.01178 8.8118 2.4 10.8 2.4C12.7882 2.4 14.4 4.01178 14.4 6Z" stroke="#646363" stroke-width="2" stroke-linecap="round" stroke-linejoin="round"/>
</svg>
