<svg width="24" height="25" viewBox="0 0 24 25" fill="none" xmlns="http://www.w3.org/2000/svg">
<path d="M13 7.83325C13 7.28097 12.5523 6.83325 12 6.83325C11.4477 6.83325 11 7.28097 11 7.83325H12H13ZM11 16.8333C11 17.3855 11.4477 17.8333 12 17.8333C12.5523 17.8333 13 17.3855 13 16.8333H12H11ZM16.5 13.3333C17.0523 13.3333 17.5 12.8855 17.5 12.3333C17.5 11.781 17.0523 11.3333 16.5 11.3333V12.3333V13.3333ZM7.5 11.3333C6.94772 11.3333 6.5 11.781 6.5 12.3333C6.5 12.8855 6.94772 13.3333 7.5 13.3333V12.3333V11.3333ZM21 12.3333H20C20 16.7515 16.4183 20.3333 12 20.3333V21.3333V22.3333C17.5228 22.3333 22 17.8561 22 12.3333H21ZM12 21.3333V20.3333C7.58172 20.3333 4 16.7515 4 12.3333H3H2C2 17.8561 6.47715 22.3333 12 22.3333V21.3333ZM3 12.3333H4C4 7.91497 7.58172 4.33325 12 4.33325V3.33325V2.33325C6.47715 2.33325 2 6.8104 2 12.3333H3ZM12 3.33325V4.33325C16.4183 4.33325 20 7.91497 20 12.3333H21H22C22 6.8104 17.5228 2.33325 12 2.33325V3.33325ZM12 7.83325H11L11 12.3333H12H13L13 7.83325H12ZM12 12.3333H11V16.8333H12H13V12.3333H12ZM16.5 12.3333V11.3333H12V12.3333V13.3333H16.5V12.3333ZM12 12.3333V11.3333H7.5V12.3333V13.3333H12V12.3333Z" fill="#610CF4"/>
</svg>
