<svg width="20" height="20" viewBox="0 0 20 20" fill="none" xmlns="http://www.w3.org/2000/svg">
<path d="M9.24874 3.16976H4.51C2.93971 3.16976 1.66675 4.44269 1.66675 6.01292V15.4902C1.66675 17.0604 2.93971 18.3334 4.51 18.3334H13.9875C15.5578 18.3334 16.8307 17.0604 16.8307 15.4902L16.8307 10.7516M6.40549 13.5947L9.85371 12.8999C10.0368 12.863 10.2048 12.7729 10.3368 12.6408L18.056 4.91766C18.4261 4.54737 18.4259 3.94716 18.0554 3.57718L16.4203 1.94389C16.05 1.57407 15.4501 1.57432 15.0801 1.94445L7.36016 9.6684C7.22842 9.80022 7.13846 9.96795 7.10154 10.1506L6.40549 13.5947Z" stroke="#262626" stroke-width="2" stroke-linecap="round" stroke-linejoin="round"/>
</svg>
