<svg width="24" height="25" viewBox="0 0 24 25" fill="none" xmlns="http://www.w3.org/2000/svg">
<path d="M12 4.60352C16.0688 4.60367 18.7297 6.53427 20.3447 8.44629C21.1461 9.39516 21.6937 10.3415 22.041 11.0498C22.2149 11.4045 22.3407 11.7033 22.4238 11.917C22.4653 12.0237 22.4971 12.1103 22.5186 12.1719C22.5292 12.2024 22.537 12.228 22.543 12.2461C22.5459 12.255 22.549 12.2629 22.5508 12.2686C22.5516 12.2712 22.5521 12.2745 22.5527 12.2764L22.5547 12.2803C22.5537 12.2811 22.5208 12.2919 21.6006 12.5801L22.5488 12.8955V12.8965L22.5479 12.8994C22.5471 12.9014 22.5459 12.9045 22.5449 12.9072C22.5431 12.9128 22.541 12.9203 22.5381 12.9287C22.5318 12.9467 22.5228 12.9718 22.5117 13.002C22.4894 13.0626 22.457 13.1479 22.4141 13.2529C22.3281 13.4631 22.1986 13.7564 22.0205 14.1045C21.6651 14.7992 21.1081 15.7252 20.2998 16.6504C18.6707 18.5148 16.0069 20.3819 11.9844 20.3164C7.98324 20.251 5.3335 18.3958 3.70703 16.5674C2.89982 15.6598 2.34263 14.758 1.98633 14.082C1.80803 13.7437 1.67814 13.4581 1.5918 13.2539C1.54874 13.152 1.51566 13.0688 1.49316 13.0098C1.48205 12.9806 1.47314 12.956 1.4668 12.9385C1.46378 12.9301 1.46093 12.9225 1.45898 12.917C1.45813 12.9146 1.45677 12.912 1.45605 12.9102L1.45508 12.9072V12.9062L2.40039 12.5801C1.53262 12.3083 1.4533 12.283 1.44629 12.2803V12.2783L1.44727 12.2764C1.44789 12.2744 1.44927 12.2713 1.4502 12.2686C1.45203 12.2628 1.4541 12.255 1.45703 12.2461C1.46304 12.2279 1.47171 12.2026 1.48242 12.1719C1.5039 12.1103 1.53559 12.0238 1.57715 11.917C1.66035 11.7032 1.78598 11.4047 1.95996 11.0498C2.30729 10.3414 2.85378 9.39526 3.65527 8.44629C5.27031 6.53419 7.93102 4.60364 12 4.60352ZM12 6.60352C8.65404 6.60364 6.51461 8.16146 5.18359 9.7373C4.51237 10.5321 4.04982 11.3302 3.75586 11.9297C3.63127 12.1838 3.53784 12.4005 3.47266 12.5625C3.5391 12.714 3.63145 12.9152 3.75488 13.1494C4.05435 13.7176 4.52462 14.4776 5.20117 15.2383C6.54398 16.7478 8.69549 18.2621 12.0166 18.3164C15.3163 18.3702 17.454 16.8685 18.7939 15.335C19.4698 14.5614 19.9399 13.7803 20.2402 13.1934C20.3685 12.9426 20.4632 12.7285 20.5303 12.5693C20.465 12.4067 20.3713 12.1871 20.2451 11.9297C19.9512 11.3303 19.4884 10.5319 18.8174 9.7373C17.4864 8.16148 15.3459 6.60367 12 6.60352ZM12 9.1543C13.8516 9.15455 15.4004 10.6228 15.4004 12.4902C15.3999 14.3573 13.8513 15.8249 12 15.8252C10.1486 15.825 8.60108 14.3573 8.60059 12.4902C8.60059 10.6227 10.1483 9.1545 12 9.1543ZM12 11.1543C11.2011 11.1545 10.6006 11.7784 10.6006 12.4902C10.6011 13.2017 11.2014 13.825 12 13.8252C12.7985 13.8249 13.3999 13.2016 13.4004 12.4902C13.4004 11.7784 12.7989 11.1546 12 11.1543ZM2.40039 12.5801L1.45508 12.9053L1.34766 12.5947L1.44629 12.2812L2.40039 12.5801ZM22.6514 12.5889L22.5498 12.8945L21.6006 12.5801L22.5547 12.2812L22.6514 12.5889Z" fill="black"/>
</svg>
