<svg width="24" height="25" viewBox="0 0 24 25" fill="none" xmlns="http://www.w3.org/2000/svg">
<path d="M20.4004 19.96L5.40039 4.95996M10.2004 10.9015C9.82697 11.3132 9.60039 11.854 9.60039 12.4463C9.60039 13.7361 10.6749 14.7816 12.0004 14.7816C12.6115 14.7816 13.1693 14.5593 13.593 14.1933M20.4392 14.7816C21.2654 13.5448 21.6004 12.5361 21.6004 12.5361C21.6004 12.5361 19.4158 5.55996 12.0004 5.55996C11.5841 5.55996 11.1843 5.58195 10.8004 5.62345M17.4004 17.8094C16.023 18.6881 14.2497 19.3095 12.0004 19.2727C4.67731 19.1529 2.40039 12.5361 2.40039 12.5361C2.40039 12.5361 3.45825 9.15804 6.60039 7.10328" stroke="#646363" stroke-width="2" stroke-linecap="round"/>
</svg>
