<svg width="24" height="24" viewBox="0 0 24 24" fill="none" xmlns="http://www.w3.org/2000/svg">
<path d="M12 4.14258C16.0688 4.14273 18.7297 6.07431 20.3447 7.98633C21.1461 8.9352 21.6937 9.88155 22.041 10.5898C22.2149 10.9445 22.3407 11.2433 22.4238 11.457C22.4653 11.5637 22.4971 11.6504 22.5186 11.7119C22.5292 11.7425 22.537 11.768 22.543 11.7861C22.5459 11.795 22.549 11.8029 22.5508 11.8086C22.5516 11.8113 22.5521 11.8145 22.5527 11.8164L22.5547 11.8203C22.5537 11.8212 22.5208 11.832 21.6006 12.1201L22.5488 12.4355V12.4365L22.5479 12.4395C22.5471 12.4415 22.5459 12.4445 22.5449 12.4473C22.5431 12.4528 22.541 12.4603 22.5381 12.4688C22.5318 12.4867 22.5228 12.5118 22.5117 12.542C22.4894 12.6027 22.457 12.6879 22.4141 12.793C22.3281 13.0032 22.1986 13.2964 22.0205 13.6445C21.6651 14.3392 21.1081 15.2652 20.2998 16.1904C18.6707 18.0549 16.0069 19.922 11.9844 19.8564C7.98324 19.791 5.3335 17.9359 3.70703 16.1074C2.89982 15.1998 2.34263 14.298 1.98633 13.6221C1.80803 13.2837 1.67814 12.9982 1.5918 12.7939C1.54874 12.6921 1.51566 12.6089 1.49316 12.5498C1.48205 12.5206 1.47314 12.496 1.4668 12.4785C1.46378 12.4702 1.46093 12.4625 1.45898 12.457C1.45813 12.4546 1.45677 12.452 1.45605 12.4502L1.45508 12.4473V12.4463L2.40039 12.1201C1.53262 11.8484 1.4533 11.823 1.44629 11.8203V11.8184L1.44727 11.8164C1.44789 11.8144 1.44927 11.8114 1.4502 11.8086C1.45203 11.8029 1.4541 11.795 1.45703 11.7861C1.46304 11.7679 1.47171 11.7426 1.48242 11.7119C1.5039 11.6503 1.53559 11.5638 1.57715 11.457C1.66035 11.2432 1.78598 10.9447 1.95996 10.5898C2.30729 9.88147 2.85378 8.9353 3.65527 7.98633C5.27031 6.07423 7.93102 4.1427 12 4.14258ZM12 6.14355C8.65404 6.14368 6.51461 7.7015 5.18359 9.27734C4.51237 10.0721 4.04982 10.8702 3.75586 11.4697C3.63127 11.7238 3.53784 11.9405 3.47266 12.1025C3.5391 12.2541 3.63145 12.4552 3.75488 12.6895C4.05435 13.2576 4.52462 14.0176 5.20117 14.7783C6.54398 16.2879 8.69549 17.8021 12.0166 17.8564C15.3163 17.9103 17.454 16.4086 18.7939 14.875C19.4698 14.1014 19.9399 13.3203 20.2402 12.7334C20.3685 12.4827 20.4632 12.2686 20.5303 12.1094C20.465 11.9467 20.3713 11.7272 20.2451 11.4697C19.9512 10.8704 19.4884 10.0719 18.8174 9.27734C17.4864 7.70152 15.3459 6.14371 12 6.14355ZM12 8.69434C13.8516 8.69459 15.4004 10.1628 15.4004 12.0303C15.3999 13.8973 13.8513 15.365 12 15.3652C10.1486 15.365 8.60108 13.8973 8.60059 12.0303C8.60059 10.1628 10.1483 8.69454 12 8.69434ZM12 10.6943C11.2011 10.6945 10.6006 11.3185 10.6006 12.0303C10.6011 12.7417 11.2014 13.365 12 13.3652C12.7985 13.365 13.3999 12.7417 13.4004 12.0303C13.4004 11.3185 12.7989 10.6946 12 10.6943ZM2.40039 12.1201L1.45508 12.4453L1.34668 12.1348L1.44629 11.8213L2.40039 12.1201ZM22.6514 12.1289L22.5498 12.4346L21.6006 12.1201L22.5547 11.8213L22.6514 12.1289Z" fill="#9055F7"/>
</svg>
