<svg width="26" height="22" viewBox="0 0 26 22" fill="none" xmlns="http://www.w3.org/2000/svg">
<path fill-rule="evenodd" clip-rule="evenodd" d="M3.44087 3.2408C4.49103 2.19096 5.91515 1.6012 7.40007 1.6012C8.88499 1.6012 10.3091 2.19096 11.3593 3.2408L13.0001 4.8802L14.6409 3.2408C15.1575 2.70595 15.7754 2.27933 16.4586 1.98583C17.1418 1.69234 17.8767 1.53786 18.6202 1.5314C19.3638 1.52494 20.1012 1.66663 20.7894 1.9482C21.4776 2.22977 22.1029 2.64559 22.6287 3.17139C23.1545 3.69719 23.5703 4.32244 23.8519 5.01066C24.1334 5.69888 24.2751 6.43629 24.2687 7.17985C24.2622 7.92341 24.1077 8.65825 23.8142 9.34147C23.5207 10.0247 23.0941 10.6426 22.5593 11.1592L13.0001 20.7198L3.44087 11.1592C2.39104 10.109 1.80127 8.68492 1.80127 7.2C1.80127 5.71508 2.39104 4.29096 3.44087 3.2408V3.2408Z" stroke="black" stroke-width="2.33333" stroke-linejoin="round"/>
</svg>
