<svg width="21" height="21" viewBox="0 0 21 21" fill="none" xmlns="http://www.w3.org/2000/svg">
<path d="M2.5 17.5217L1.71913 16.897C1.479 17.1972 1.43218 17.6085 1.5987 17.9549C1.76522 18.3014 2.11559 18.5217 2.5 18.5217V17.5217ZM6.9 12.0217L7.68087 11.397C7.4911 11.1598 7.20378 11.0217 6.9 11.0217C6.59622 11.0217 6.3089 11.1598 6.11913 11.397L6.9 12.0217ZM8.5 14.0217L7.71913 14.6464C7.9089 14.8836 8.19621 15.0217 8.5 15.0217C8.80378 15.0217 9.0911 14.8836 9.28087 14.6464L8.5 14.0217ZM12.1 9.52173L12.8809 8.89703C12.6911 8.65982 12.4038 8.52173 12.1 8.52173C11.7962 8.52173 11.5089 8.65982 11.3191 8.89703L12.1 9.52173ZM18.5 17.5217V18.5217C18.8844 18.5217 19.2348 18.3014 19.4013 17.9549C19.5678 17.6085 19.521 17.1972 19.2809 16.897L18.5 17.5217ZM7.5 5.02173H6.5C6.5 5.29787 6.27614 5.52173 6 5.52173V6.52173V7.52173C7.38071 7.52173 8.5 6.40244 8.5 5.02173H7.5ZM6 6.52173V5.52173C5.72386 5.52173 5.5 5.29787 5.5 5.02173H4.5H3.5C3.5 6.40244 4.61929 7.52173 6 7.52173V6.52173ZM4.5 5.02173H5.5C5.5 4.74559 5.72386 4.52173 6 4.52173V3.52173V2.52173C4.61929 2.52173 3.5 3.64102 3.5 5.02173H4.5ZM6 3.52173V4.52173C6.27614 4.52173 6.5 4.74559 6.5 5.02173H7.5H8.5C8.5 3.64102 7.38071 2.52173 6 2.52173V3.52173ZM2.5 17.5217L3.28087 18.1464L7.68087 12.6464L6.9 12.0217L6.11913 11.397L1.71913 16.897L2.5 17.5217ZM6.9 12.0217L6.11913 12.6464L7.71913 14.6464L8.5 14.0217L9.28087 13.397L7.68087 11.397L6.9 12.0217ZM8.5 14.0217L9.28087 14.6464L12.8809 10.1464L12.1 9.52173L11.3191 8.89703L7.71913 13.397L8.5 14.0217ZM12.1 9.52173L11.3191 10.1464L17.7191 18.1464L18.5 17.5217L19.2809 16.897L12.8809 8.89703L12.1 9.52173ZM18.5 17.5217V16.5217H2.5V17.5217V18.5217H18.5V17.5217Z" fill="white"/>
</svg>
