<svg width="20" height="20" viewBox="0 0 20 20" fill="none" xmlns="http://www.w3.org/2000/svg">
<path d="M2.69063 4.72214L15.3577 17.0887M2.69063 4.72214C3.16193 4.18409 3.86585 3.84251 4.65231 3.84251H8.93448M2.69063 4.72214C2.31158 5.15489 2.08301 5.71473 2.08301 6.32617V15.4329C2.08301 16.8046 3.23332 17.9166 4.65231 17.9166H14.0731C15.4921 17.9166 16.6424 16.8046 16.6424 15.4329V11.7074M8.93448 11.7074L3.36766 17.0887M15.0045 4.89807V4.84515M17.9163 4.83688C17.9163 6.67262 15.0045 9.12029 15.0045 9.12029C15.0045 9.12029 12.0926 6.67262 12.0926 4.83688C12.0926 3.31609 13.3963 2.08325 15.0045 2.08325C16.6126 2.08325 17.9163 3.31609 17.9163 4.83688Z" stroke="#262626" stroke-width="2" stroke-linecap="round" stroke-linejoin="round"/>
</svg>
