<svg width="30" height="35" viewBox="0 0 25 35" fill="none" xmlns="http://www.w3.org/2000/svg">
<path d="M12.1875 0C5.46762 0 0 5.2292 0 11.6543C0 14.7141 1.39471 18.7832 4.14527 23.7489C6.35426 27.7357 8.90982 31.3409 10.239 33.1348C10.4636 33.4413 10.7573 33.6905 11.0962 33.8624C11.4351 34.0342 11.8098 34.1237 12.1898 34.1237C12.5698 34.1237 12.9444 34.0342 13.2833 33.8624C13.6223 33.6905 13.9159 33.4413 14.1405 33.1348C15.4675 31.3409 18.0253 27.7357 20.2343 23.7489C22.9803 18.7847 24.375 14.7156 24.375 11.6543C24.375 5.2292 18.9074 0 12.1875 0Z" fill="#FC4554"/>
<path d="M5.41663 15.2343C5.41663 15.0548 5.48796 14.8825 5.61494 14.7556C5.74192 14.6286 5.91414 14.5573 6.09371 14.5573H8.12496V12.1875L12.1875 9.47913L16.25 12.1875V14.5573H18.2812C18.4608 14.5573 18.633 14.6286 18.76 14.7556C18.887 14.8825 18.9583 15.0548 18.9583 15.2343V18.2812C18.9583 18.4608 18.887 18.633 18.76 18.76C18.633 18.887 18.4608 18.9583 18.2812 18.9583H5.41663V15.2343Z" stroke="white" stroke-linejoin="round"/>
<path d="M12.1875 6.09375V9.47917V6.09375Z" fill="white" fill-opacity="0.6"/>
<path d="M12.1875 6.09375V9.47917" stroke="white" stroke-linecap="round"/>
<path d="M13.5417 18.9583V14.5573H10.8333V18.9583M10.1562 18.9583H14.2187M16.25 8.12497V6.09372C16.25 6.09372 15.7422 7.10935 14.2187 6.09372C12.6953 5.0781 12.1875 6.09372 12.1875 6.09372V8.12497C12.1875 8.12497 12.6953 7.10935 14.2187 8.12497C15.7422 9.1406 16.25 8.12497 16.25 8.12497Z" stroke="white" stroke-linecap="round" stroke-linejoin="round"/>
</svg>
