<svg width="20" height="21" viewBox="0 0 20 21" fill="none" xmlns="http://www.w3.org/2000/svg">
<path d="M17.2194 16.103C17.2194 16.103 16.2539 17.0513 16.0173 17.3293C15.6318 17.7407 15.1777 17.9349 14.5823 17.9349C14.525 17.9349 14.464 17.9349 14.4067 17.9311C13.2733 17.8587 12.2199 17.4169 11.4299 17.0399C9.26985 15.9963 7.37309 14.5148 5.79691 12.6371C4.49551 11.0718 3.62537 9.6245 3.04909 8.07059C2.69416 7.12224 2.56441 6.38337 2.62165 5.68639C2.65982 5.24079 2.83155 4.87135 3.14832 4.55523L4.44971 3.2565C4.63672 3.0813 4.83517 2.98608 5.02981 2.98608C5.27024 2.98608 5.46488 3.13081 5.58701 3.25269C5.59082 3.2565 5.59464 3.2603 5.59846 3.26411C5.83126 3.4812 6.05261 3.70591 6.28541 3.94586C6.40372 4.06773 6.52584 4.18961 6.64797 4.31529L7.68985 5.35504C8.09439 5.75876 8.09439 6.132 7.68985 6.53572C7.57917 6.64617 7.47231 6.75661 7.36164 6.86326C7.04106 7.1908 7.29289 6.93948 6.96087 7.23655C6.95323 7.24417 6.9456 7.24798 6.94178 7.25559C6.61357 7.58313 6.67463 7.90306 6.74333 8.12015C6.74715 8.13157 6.75096 8.143 6.75478 8.15443C7.02574 8.80951 7.40739 9.4265 7.98748 10.1616L7.9913 10.1654C9.04463 11.4603 10.1552 12.4696 11.3803 13.2427C11.5367 13.3418 11.697 13.4217 11.8497 13.4979C11.9871 13.5665 12.1168 13.6312 12.2275 13.6998C12.2428 13.7074 12.258 13.7188 12.2733 13.7264C12.4031 13.7912 12.5252 13.8216 12.6511 13.8216C12.9679 13.8216 13.1664 13.6236 13.2312 13.5589L13.9793 12.8123C14.1091 12.6828 14.3151 12.5267 14.5556 12.5267C14.7922 12.5267 14.9868 12.6752 15.1051 12.8047C15.109 12.8085 15.109 12.8085 15.1128 12.8123L17.2156 14.9109C17.6087 15.2993 17.2194 16.103 17.2194 16.103Z" stroke="black" stroke-width="2" stroke-linecap="round" stroke-linejoin="round"/>
</svg>
