<svg width="18" height="18" viewBox="0 0 18 18" fill="none" xmlns="http://www.w3.org/2000/svg">
<path d="M0.666992 12.7498C0.666992 12.5288 0.75479 12.3169 0.91107 12.1606C1.06735 12.0043 1.27931 11.9165 1.50033 11.9165H4.00033V8.99984L9.00033 5.6665L14.0003 8.99984V11.9165H16.5003C16.7213 11.9165 16.9333 12.0043 17.0896 12.1606C17.2459 12.3169 17.3337 12.5288 17.3337 12.7498V16.4998C17.3337 16.7209 17.2459 16.9328 17.0896 17.0891C16.9333 17.2454 16.7213 17.3332 16.5003 17.3332H0.666992V12.7498Z" stroke="white" stroke-linejoin="round"/>
<path d="M9 1.5V5.66667" stroke="white" stroke-linecap="round"/>
<path d="M10.6667 17.3332V11.9166H7.33333V17.3332M6.5 17.3332H11.5M14 3.99989V1.49989C14 1.49989 13.375 2.74989 11.5 1.49989C9.625 0.249892 9 1.49989 9 1.49989V3.99989C9 3.99989 9.625 2.74989 11.5 3.99989C13.375 5.24989 14 3.99989 14 3.99989Z" stroke="white" stroke-linecap="round" stroke-linejoin="round"/>
</svg>
