<svg width="21" height="21" viewBox="0 0 21 21" fill="none" xmlns="http://www.w3.org/2000/svg">
<path d="M10.0792 2.72216C10.2514 2.37337 10.7487 2.37337 10.9209 2.72216L13.1492 7.23727C13.2176 7.37577 13.3497 7.47177 13.5026 7.49398L18.4853 8.21801C18.8702 8.27394 19.0239 8.74696 18.7453 9.01845L15.1398 12.533C15.0292 12.6408 14.9787 12.7961 15.0049 12.9483L15.856 17.9109C15.9218 18.2943 15.5194 18.5866 15.1751 18.4056L10.7184 16.0626C10.5817 15.9907 10.4184 15.9907 10.2817 16.0626L5.82501 18.4056C5.48074 18.5866 5.07837 18.2943 5.14412 17.9109L5.99526 12.9483C6.02137 12.7961 5.9709 12.6408 5.8603 12.533L2.25478 9.01845C1.97625 8.74696 2.12995 8.27394 2.51486 8.21801L7.49757 7.49398C7.65042 7.47177 7.78255 7.37577 7.85091 7.23727L10.0792 2.72216Z" stroke="#262626" stroke-width="1.66667" stroke-linejoin="round"/>
</svg>
