<svg width="16" height="16" viewBox="0 0 16 16" fill="none" xmlns="http://www.w3.org/2000/svg">
<path d="M10.5927 6.35008C10.8531 6.08974 10.8531 5.66763 10.5927 5.40728C10.3324 5.14693 9.91027 5.14693 9.64992 5.40728L10.5927 6.35008ZM5.40727 9.64992C5.14693 9.91027 5.14693 10.3324 5.40727 10.5927C5.66762 10.8531 6.08973 10.8531 6.35008 10.5927L5.40727 9.64992ZM9.64992 10.5927C9.91027 10.8531 10.3324 10.8531 10.5927 10.5927C10.8531 10.3324 10.8531 9.91027 10.5927 9.64992L9.64992 10.5927ZM6.35008 5.40727C6.08973 5.14693 5.66762 5.14693 5.40727 5.40727C5.14693 5.66762 5.14693 6.08973 5.40727 6.35008L6.35008 5.40727ZM14 8H13.3333C13.3333 10.9455 10.9455 13.3333 8 13.3333V14V14.6667C11.6819 14.6667 14.6667 11.6819 14.6667 8H14ZM8 14V13.3333C5.05448 13.3333 2.66667 10.9455 2.66667 8H2H1.33333C1.33333 11.6819 4.3181 14.6667 8 14.6667V14ZM2 8H2.66667C2.66667 5.05448 5.05448 2.66667 8 2.66667V2V1.33333C4.3181 1.33333 1.33333 4.3181 1.33333 8H2ZM8 2V2.66667C10.9455 2.66667 13.3333 5.05448 13.3333 8H14H14.6667C14.6667 4.3181 11.6819 1.33333 8 1.33333V2ZM10.1213 5.87868L9.64992 5.40728L7.5286 7.5286L8 8L8.4714 8.4714L10.5927 6.35008L10.1213 5.87868ZM8 8L7.5286 7.5286L5.40727 9.64992L5.87868 10.1213L6.35008 10.5927L8.4714 8.4714L8 8ZM10.1213 10.1213L10.5927 9.64992L8.4714 7.5286L8 8L7.5286 8.4714L9.64992 10.5927L10.1213 10.1213ZM8 8L8.4714 7.5286L6.35008 5.40727L5.87868 5.87868L5.40727 6.35008L7.5286 8.4714L8 8Z" fill="#FF0D0D"/>
</svg>
