<svg width="22" height="22" viewBox="0 0 22 22" fill="none" xmlns="http://www.w3.org/2000/svg">
<path d="M10 5C10 5.55228 10.4477 6 11 6C11.5523 6 12 5.55228 12 5H10ZM12 1C12 0.447715 11.5523 0 11 0C10.4477 0 10 0.447715 10 1H12ZM10 21C10 21.5523 10.4477 22 11 22C11.5523 22 12 21.5523 12 21H10ZM12 17C12 16.4477 11.5523 16 11 16C10.4477 16 10 16.4477 10 17H12ZM17 10C16.4477 10 16 10.4477 16 11C16 11.5523 16.4477 12 17 12V10ZM21 12C21.5523 12 22 11.5523 22 11C22 10.4477 21.5523 10 21 10V12ZM1 10C0.447715 10 0 10.4477 0 11C0 11.5523 0.447715 12 1 12V10ZM5 12C5.55228 12 6 11.5523 6 11C6 10.4477 5.55228 10 5 10V12ZM19 10.9999H18C18 14.8659 14.866 17.9999 11 17.9999V18.9999V19.9999C15.9706 19.9999 20 15.9705 20 10.9999H19ZM11 18.9999V17.9999C7.13401 17.9999 4 14.8659 4 10.9999H3H2C2 15.9705 6.02944 19.9999 11 19.9999V18.9999ZM3 10.9999H4C4 7.13395 7.13401 3.99994 11 3.99994V2.99994V1.99994C6.02944 1.99994 2 6.02938 2 10.9999H3ZM11 2.99994V3.99994C14.866 3.99994 18 7.13395 18 10.9999H19H20C20 6.02938 15.9706 1.99994 11 1.99994V2.99994ZM11 5H12V1H11H10V5H11ZM11 21H12V17H11H10V21H11ZM17 11V12H21V11V10H17V11ZM1 11V12H5V11V10H1V11ZM14 11H13C13 12.1046 12.1046 13 11 13V14V15C13.2091 15 15 13.2091 15 11H14ZM11 14V13C9.89543 13 9 12.1046 9 11H8H7C7 13.2091 8.79086 15 11 15V14ZM8 11H9C9 9.89543 9.89543 9 11 9V8V7C8.79086 7 7 8.79086 7 11H8ZM11 8V9C12.1046 9 13 9.89543 13 11H14H15C15 8.79086 13.2091 7 11 7V8Z" fill="white"/>
</svg>
