<svg width="20" height="20" viewBox="0 0 20 20" fill="none" xmlns="http://www.w3.org/2000/svg">
<path d="M16.6663 14.1366V15.9107C16.6663 16.1207 16.5916 16.2992 16.442 16.4462C16.2924 16.5932 16.1108 16.6667 15.8971 16.6667H4.10224C3.88856 16.6667 3.70694 16.5932 3.55737 16.4462C3.40779 16.2992 3.33301 16.1207 3.33301 15.9107V14.1366C3.33301 13.9266 3.40779 13.7481 3.55737 13.6011C3.70694 13.4542 3.88856 13.3807 4.10224 13.3807H6.95138C7.29619 13.3807 7.58955 13.6123 7.82204 13.869C7.90008 13.9552 7.98894 14.0339 8.08862 14.1051C8.35304 14.2941 8.64818 14.3886 8.97403 14.3886H11.0253C11.3512 14.3886 11.6463 14.2941 11.9107 14.1051C12.0104 14.0339 12.0993 13.9552 12.1773 13.869C12.4098 13.6123 12.7032 13.3807 13.048 13.3807H15.8971C16.1108 13.3807 16.2924 13.4542 16.442 13.6011C16.5916 13.7481 16.6663 13.9266 16.6663 14.1366ZM13.9577 6.7206C13.8669 6.93058 13.7093 7.03557 13.485 7.03557H11.4337V10.5632C11.4337 10.6997 11.3829 10.8178 11.2815 10.9176C11.18 11.0173 11.0598 11.0672 10.9209 11.0672H8.86959C8.73071 11.0672 8.61051 11.0173 8.50902 10.9176C8.40752 10.8178 8.35677 10.6997 8.35677 10.5632V7.03557H6.30549C6.08113 7.03557 5.92355 6.93058 5.83274 6.7206C5.74192 6.51587 5.77932 6.33476 5.94492 6.17728L9.53466 2.64961C9.63081 2.54987 9.75101 2.5 9.89524 2.5C10.0395 2.5 10.1597 2.54987 10.2558 2.64961L13.8456 6.17728C14.0112 6.33476 14.0485 6.51587 13.9577 6.7206Z" stroke="#262626" stroke-width="2" stroke-linejoin="round"/>
</svg>
