<svg width="25" height="26" viewBox="0 0 25 26" fill="none" xmlns="http://www.w3.org/2000/svg">
<path d="M6.13839 17.0323C4.47414 17.0323 3.125 15.9908 3.125 14.4638C3.125 12.9367 4.47414 11.6988 6.13839 11.6988C6.25157 11.6988 6.36328 11.7045 6.47321 11.7157V11.6988H6.51466C6.48731 11.4975 6.47321 11.2924 6.47321 11.0843C6.47321 8.36957 8.87169 6.16882 11.8304 6.16882C13.8339 6.16882 15.5805 7.178 16.4995 8.67259C16.724 8.64228 16.9538 8.62658 17.1875 8.62658C19.7763 8.62658 21.875 10.5522 21.875 12.9277C21.875 14.8831 20.4529 16.3737 18.5059 16.8651M12.3521 20.7522V13.6957M12.3521 13.6957L9.27734 16.6059M12.3521 13.6957L15.4297 16.6059" stroke="black" stroke-width="2" stroke-linecap="round" stroke-linejoin="round"/>
</svg>
