<svg width="24" height="25" viewBox="0 0 24 25" fill="none" xmlns="http://www.w3.org/2000/svg">
<path fill-rule="evenodd" clip-rule="evenodd" d="M4 12.4536C4.00014 10.9141 4.44451 9.40726 5.27979 8.114C6.11506 6.82073 7.30576 5.79596 8.70901 5.16263C10.1123 4.5293 11.6684 4.31432 13.1908 4.54349C14.7132 4.77266 16.1372 5.43624 17.2918 6.45461C18.4464 7.47298 19.2826 8.80287 19.7002 10.2847C20.1177 11.7666 20.0988 13.3374 19.6457 14.8088C19.1926 16.2802 18.3246 17.5895 17.1458 18.5798C15.967 19.5701 14.5275 20.1992 13 20.3916V14.4536H15C15.2652 14.4536 15.5196 14.3483 15.7071 14.1607C15.8946 13.9732 16 13.7188 16 13.4536C16 13.1884 15.8946 12.934 15.7071 12.7465C15.5196 12.559 15.2652 12.4536 15 12.4536H13V10.4536C13 10.1884 13.1054 9.93404 13.2929 9.74651C13.4804 9.55897 13.7348 9.45361 14 9.45361H14.5C14.7652 9.45361 15.0196 9.34826 15.2071 9.16072C15.3946 8.97318 15.5 8.71883 15.5 8.45361C15.5 8.1884 15.3946 7.93404 15.2071 7.74651C15.0196 7.55897 14.7652 7.45361 14.5 7.45361H14C13.2044 7.45361 12.4413 7.76968 11.8787 8.33229C11.3161 8.8949 11 9.65796 11 10.4536V12.4536H9C8.73478 12.4536 8.48043 12.559 8.29289 12.7465C8.10536 12.934 8 13.1884 8 13.4536C8 13.7188 8.10536 13.9732 8.29289 14.1607C8.48043 14.3483 8.73478 14.4536 9 14.4536H11V20.3916C9.06661 20.148 7.28861 19.2071 5.99975 17.7456C4.7109 16.284 3.99982 14.4023 4 12.4536ZM12 22.4536C17.523 22.4536 22 17.9766 22 12.4536C22 6.93061 17.523 2.45361 12 2.45361C6.477 2.45361 2 6.93061 2 12.4536C2 17.9766 6.477 22.4536 12 22.4536Z" fill="#1877F2"/>
</svg>
