<svg width="25" height="25" viewBox="0 0 25 25" fill="none" xmlns="http://www.w3.org/2000/svg">
<path d="M16.5 8.45361C18.0913 8.45361 19.6174 9.08575 20.7426 10.211C21.8679 11.3362 22.5 12.8623 22.5 14.4536V21.4536H18.5V14.4536C18.5 13.9232 18.2893 13.4145 17.9142 13.0394C17.5391 12.6643 17.0304 12.4536 16.5 12.4536C15.9696 12.4536 15.4609 12.6643 15.0858 13.0394C14.7107 13.4145 14.5 13.9232 14.5 14.4536V21.4536H10.5V14.4536C10.5 12.8623 11.1321 11.3362 12.2574 10.211C13.3826 9.08575 14.9087 8.45361 16.5 8.45361Z" stroke="#0A66C3" stroke-width="2" stroke-linecap="round" stroke-linejoin="round"/>
<path d="M6.5 9.45361H2.5V21.4536H6.5V9.45361Z" stroke="#0A66C3" stroke-width="2" stroke-linecap="round" stroke-linejoin="round"/>
<path d="M4.5 6.45361C5.60457 6.45361 6.5 5.55818 6.5 4.45361C6.5 3.34904 5.60457 2.45361 4.5 2.45361C3.39543 2.45361 2.5 3.34904 2.5 4.45361C2.5 5.55818 3.39543 6.45361 4.5 6.45361Z" stroke="#0A66C3" stroke-width="2" stroke-linecap="round" stroke-linejoin="round"/>
</svg>
