<svg width="25" height="25" viewBox="0 0 25 25" fill="none" xmlns="http://www.w3.org/2000/svg">
<path d="M8.3 2.45361H16.7C19.9 2.45361 22.5 5.05361 22.5 8.25361V16.6536C22.5 18.1919 21.8889 19.6671 20.8012 20.7548C19.7135 21.8425 18.2383 22.4536 16.7 22.4536H8.3C5.1 22.4536 2.5 19.8536 2.5 16.6536V8.25361C2.5 6.71536 3.11107 5.24011 4.19878 4.15239C5.28649 3.06468 6.76174 2.45361 8.3 2.45361ZM8.1 4.45361C7.14522 4.45361 6.22955 4.8329 5.55442 5.50803C4.87928 6.18316 4.5 7.09883 4.5 8.05361V16.8536C4.5 18.8436 6.11 20.4536 8.1 20.4536H16.9C17.8548 20.4536 18.7705 20.0743 19.4456 19.3992C20.1207 18.7241 20.5 17.8084 20.5 16.8536V8.05361C20.5 6.06361 18.89 4.45361 16.9 4.45361H8.1ZM17.75 5.95361C18.0815 5.95361 18.3995 6.08531 18.6339 6.31973C18.8683 6.55415 19 6.87209 19 7.20361C19 7.53513 18.8683 7.85308 18.6339 8.0875C18.3995 8.32192 18.0815 8.45361 17.75 8.45361C17.4185 8.45361 17.1005 8.32192 16.8661 8.0875C16.6317 7.85308 16.5 7.53513 16.5 7.20361C16.5 6.87209 16.6317 6.55415 16.8661 6.31973C17.1005 6.08531 17.4185 5.95361 17.75 5.95361ZM12.5 7.45361C13.8261 7.45361 15.0979 7.9804 16.0355 8.91808C16.9732 9.85576 17.5 11.1275 17.5 12.4536C17.5 13.7797 16.9732 15.0515 16.0355 15.9891C15.0979 16.9268 13.8261 17.4536 12.5 17.4536C11.1739 17.4536 9.90215 16.9268 8.96447 15.9891C8.02678 15.0515 7.5 13.7797 7.5 12.4536C7.5 11.1275 8.02678 9.85576 8.96447 8.91808C9.90215 7.9804 11.1739 7.45361 12.5 7.45361ZM12.5 9.45361C11.7044 9.45361 10.9413 9.76968 10.3787 10.3323C9.81607 10.8949 9.5 11.658 9.5 12.4536C9.5 13.2493 9.81607 14.0123 10.3787 14.5749C10.9413 15.1375 11.7044 15.4536 12.5 15.4536C13.2956 15.4536 14.0587 15.1375 14.6213 14.5749C15.1839 14.0123 15.5 13.2493 15.5 12.4536C15.5 11.658 15.1839 10.8949 14.6213 10.3323C14.0587 9.76968 13.2956 9.45361 12.5 9.45361Z" fill="#610CF4"/>
</svg>
